<svg xmlns="http://www.w3.org/2000/svg" width="65" height="65" viewBox="0 0 65 65">
  <g id="Group_44243" data-name="Group 44243" transform="translate(2933 3998)">
    <rect id="Rectangle_5509" data-name="Rectangle 5509" width="65" height="65" rx="5" transform="translate(-2933 -3998)" fill="#fee2ba"/>
    <g id="_013-brain" data-name="013-brain" transform="translate(-2917.852 -3981.085)">
      <path id="Path_23266" data-name="Path 23266" d="M40.064,17.495a5.746,5.746,0,0,0-5.747-5.747h-.194a5.754,5.754,0,0,0-5.554-4.262,5.691,5.691,0,0,0-3.218.99,5.751,5.751,0,0,0-9.719.42,5.94,5.94,0,0,0-.764-.054,5.754,5.754,0,0,0-5.7,5.015,5.737,5.737,0,0,0-2.389,8.007,5.681,5.681,0,0,0-.764,3.121,5.753,5.753,0,0,0,9.643,3.971,5.731,5.731,0,0,0,8.944,1.27,5.727,5.727,0,0,0,3.971,1.6l2.777,4.37a1.18,1.18,0,0,0,1.507.431l2.109-1.022a1.183,1.183,0,0,0,.549-1.571l-1.83-3.821a5.747,5.747,0,0,0,4.951-5.693A5.668,5.668,0,0,0,38,21.9a5.7,5.7,0,0,0,2.066-4.4Zm0,0" transform="translate(-5.354 -5.354)" fill="#fdb44d"/>
      <path id="Path_23267" data-name="Path 23267" d="M199.273,46.352l-1.83-3.821a5.747,5.747,0,0,0,4.951-5.693,5.667,5.667,0,0,0-.635-2.626,5.745,5.745,0,0,0-3.692-10.149h-.194a5.743,5.743,0,0,0-8.373-3.519c.14.506.28,1.066.452,1.679a4.793,4.793,0,0,1,6.361,2.712,2,2,0,0,0,1.754,1.152c1.378.032,3.379.635,3.692,3.724.4,3.961-3.379,5.467-3.379,5.467l1.873-.3c.57,3.39-1.313,4.9-3.014,5.564a2.145,2.145,0,0,0-1.109,2.992l2.357,4.51.237-.108a1.2,1.2,0,0,0,.549-1.582Zm0,0" transform="translate(-169.105 -17.669)" fill="#fdb44d"/>
      <path id="Path_23268" data-name="Path 23268" d="M26.982,32.041a1.815,1.815,0,0,1-1.539-.85l-2.594-4.079a6.333,6.333,0,0,1-3.616-1.378,6.326,6.326,0,0,1-3.971,1.388,6.407,6.407,0,0,1-5.112-2.562,6.386,6.386,0,0,1-8.33-.71,6.4,6.4,0,0,1-1.13-7.34,6.375,6.375,0,0,1,2.54-8.427A6.4,6.4,0,0,1,9.514,2.841c.14,0,.28,0,.42.011a6.4,6.4,0,0,1,10.214-.581A6.3,6.3,0,0,1,23.215,1.5a6.4,6.4,0,0,1,6.027,4.262A6.39,6.39,0,0,1,33.44,16.7a6.224,6.224,0,0,1,.5,2.465,6.418,6.418,0,0,1-4.66,6.156L30.749,28.4a1.828,1.828,0,0,1-.85,2.432l-2.109,1.022a2,2,0,0,1-.807.183Zm-7.738-7.814a.673.673,0,0,1,.452.183,5.084,5.084,0,0,0,3.53,1.421.656.656,0,0,1,.549.3l2.777,4.37a.544.544,0,0,0,.689.194l2.109-1.022a.529.529,0,0,0,.248-.71l-1.83-3.821a.65.65,0,0,1,.011-.581.657.657,0,0,1,.484-.334,5.1,5.1,0,0,0,3.832-7.372.63.63,0,0,1,.161-.786A5.1,5.1,0,0,0,28.984,7.06H28.8a.638.638,0,0,1-.646-.474,5.114,5.114,0,0,0-7.792-2.906.643.643,0,0,1-.893-.172,5.1,5.1,0,0,0-8.632.355.656.656,0,0,1-.646.323,4.989,4.989,0,0,0-.678-.043A5.108,5.108,0,0,0,4.456,8.589a.656.656,0,0,1-.355.5,5.086,5.086,0,0,0-2.12,7.1.631.631,0,0,1,0,.646A5.1,5.1,0,0,0,1.3,19.61a5.147,5.147,0,0,0,4.746,4.865,5.013,5.013,0,0,0,3.81-1.345.65.65,0,0,1,.538-.161.642.642,0,0,1,.463.312A5.094,5.094,0,0,0,18.8,24.41a.628.628,0,0,1,.441-.183Zm0,0" transform="translate(0 0)" fill="#3b4157"/>
      <path id="Path_23269" data-name="Path 23269" d="M7.87,130.656a.647.647,0,0,1-.527-1.012A6.8,6.8,0,0,1,8.85,128.17a4.717,4.717,0,0,1,4.068-.818.648.648,0,1,1-.344,1.248,3.375,3.375,0,0,0-2.949.6,6.255,6.255,0,0,0-1.238,1.184.638.638,0,0,1-.517.269Zm0,0" transform="translate(-6.45 -113.5)" fill="#3b4157"/>
      <path id="Path_23270" data-name="Path 23270" d="M182.122,28.407a.637.637,0,0,1-.635-.527,9.555,9.555,0,0,0-1.582-3.67.645.645,0,1,1,1.022-.786,10.9,10.9,0,0,1,1.83,4.23.648.648,0,0,1-.527.753.361.361,0,0,0-.108,0Zm0,0" transform="translate(-160.425 -20.679)" fill="#3b4157"/>
      <path id="Path_23271" data-name="Path 23271" d="M173.478,195.672a.6.6,0,0,1-.463-.2.647.647,0,0,1,.022-.915,5.511,5.511,0,0,0,1.41-3.283.642.642,0,0,1,1.281.1,6.608,6.608,0,0,1-1.808,4.122.586.586,0,0,1-.441.183Zm0,0" transform="translate(-154.234 -170.154)" fill="#3b4157"/>
      <path id="Path_23272" data-name="Path 23272" d="M261.251,150.11a4.633,4.633,0,0,1-.926-.086.646.646,0,0,1,.237-1.27,5.214,5.214,0,0,0,3.541-.872.647.647,0,1,1,.764,1.044,6.757,6.757,0,0,1-3.616,1.184Zm0,0" transform="translate(-231.837 -131.856)" fill="#3b4157"/>
      <path id="Path_23273" data-name="Path 23273" d="M145.833,121.479a.648.648,0,0,1-.646-.646,2.846,2.846,0,0,0-2.841-2.841.646.646,0,1,1,0-1.292,4.134,4.134,0,0,1,4.133,4.133.648.648,0,0,1-.646.646Zm0,0" transform="translate(-126.449 -104.14)" fill="#3b4157"/>
      <path id="Path_23274" data-name="Path 23274" d="M173.553,115.969a.62.62,0,0,1-.452-.194,2.852,2.852,0,0,0-4.025,0,.647.647,0,1,1-.915-.915,4.144,4.144,0,0,1,5.855,0,.656.656,0,0,1,0,.915.643.643,0,0,1-.463.194Zm0,0" transform="translate(-149.896 -101.418)" fill="#3b4157"/>
      <path id="Path_23275" data-name="Path 23275" d="M82.553,70.869a.619.619,0,0,1-.452-.194,2.852,2.852,0,0,0-4.025,0,.647.647,0,0,1-.915-.915,4.131,4.131,0,0,1,5.844,0,.656.656,0,0,1,0,.915.6.6,0,0,1-.452.194Zm0,0" transform="translate(-68.69 -61.172)" fill="#3b4157"/>
    </g>
  </g>
</svg>
