<svg xmlns="http://www.w3.org/2000/svg" width="157.117" height="68.117" viewBox="0 0 157.117 68.117">
  <g id="darmankade_Vector_with_heart" data-name="darmankade_Vector with heart" transform="translate(-133.303 -129.802)">
    <g id="darmankade_1_" transform="translate(133.303 142.715)">
      <g id="Layer_4">
        <path id="Path_176" data-name="Path 176" d="M290.236,203.11a17.366,17.366,0,0,0-2.15-5.821,13.29,13.29,0,0,0-3.981-4.294,26.843,26.843,0,0,0-4.969-2.457,52.971,52.971,0,0,1-5.995-2.559,11.361,11.361,0,0,1-3.323-2.767.625.625,0,0,0-.409-.228c-.872-.02-1.745-.014-2.617-.007a.57.57,0,0,0-.344.082c-.937.78-1.861,1.574-2.788,2.362-.763.648-1.523,1.3-2.287,1.939-.985.828-1.973,1.646-2.955,2.474-.6.5-1.186,1.016-1.786,1.517-.784.658-1.585,1.3-2.355,1.977a.9.9,0,0,0-.252.6c-.017,2.784-.01,5.569-.01,8.353v.5c-.061-.082-.089-.1-.092-.126a14.631,14.631,0,0,0-1.483-5.058,15.635,15.635,0,0,0-13.506-8.864,12.216,12.216,0,0,0-2.171.153,10.481,10.481,0,0,0-5.2,2.392,31.877,31.877,0,0,0-2.842,2.672,18.44,18.44,0,0,0-1.885,2.27c-1.206,1.728-2.345,3.5-3.521,5.252a4.922,4.922,0,0,1-.511.556l-.129-.058a5.7,5.7,0,0,1-.1-.753q-.01-6.625-.007-13.257c0-1.523-.007-3.047-.01-4.57-.02-.02-.041-.044-.065-.065-.8-.082-1.605-.167-2.406-.249-.02.02-.044.041-.065.065,0,.164-.01.331-.01.5q0,9.34.007,18.683a5.682,5.682,0,0,0,.164,1.292,2.16,2.16,0,0,0,1.581,1.714,2.364,2.364,0,0,0,2.392-.678c.02-.02.044-.041.065-.065.119-.15.245-.293.351-.45,1-1.523,1.963-3.071,3-4.567a29.243,29.243,0,0,1,3.824-4.533,17.941,17.941,0,0,1,3.006-2.335,8.957,8.957,0,0,1,6.376-1.234,11.086,11.086,0,0,1,6.434,3.684,15.706,15.706,0,0,1,2.819,4.475,17.522,17.522,0,0,1,1.305,6.032,19.458,19.458,0,0,1-.157,2.665,10.26,10.26,0,0,1-1.043,3.582,10.891,10.891,0,0,1-2.614,3.473,11.071,11.071,0,0,1-3.568,2.106,14.5,14.5,0,0,1-6.373.76,13.279,13.279,0,0,1-3.493-.76,9.008,9.008,0,0,1-5.443-5.5H228.4c-.385.46-.75.941-1.162,1.373a20.45,20.45,0,0,1-4.618,3.872,7.545,7.545,0,0,1-3.865,1.172c-2.369-.027-4.741-.007-7.109-.007h-.463V182.8a.8.8,0,0,0-.007-.286.961.961,0,0,0-.249-.406c-.624-.457-1.315-.838-1.895-1.346a11.06,11.06,0,0,1-2.822-3.885,18.141,18.141,0,0,1-1.428-6.8c-.024-.774-.01-1.551-.014-2.328-.02-.02-.044-.041-.065-.065q-1.953.373-3.912.74c-.8.146-1.6.283-2.4.426-.02.02-.041.044-.065.065A7.554,7.554,0,0,1,198.3,170a9.437,9.437,0,0,1-1.2,3.439,9.965,9.965,0,0,1-3.231,3.541c-1.731,1.06-3.541,1.987-5.337,2.934-1.217.641-2.471,1.213-3.708,1.823q-3.308,1.631-6.612,3.262-3.67,1.81-7.358,3.592a.617.617,0,0,1-.474,0c-.794-.361-1.578-.743-2.365-1.128-2.144-1.046-4.287-2.1-6.434-3.142-.832-.4-1.677-.777-2.515-1.162-.02.02-.044.041-.065.065v2.716a.913.913,0,0,1-.112-.14,13.494,13.494,0,0,0-5.211-5.088,15.17,15.17,0,0,0-7.136-1.8c-.913-.017-1.827,0-2.74,0q-5.168.005-10.34.014c0,.075,0,.153,0,.228.678.688,1.35,1.387,2.048,2.058a.947.947,0,0,0,.6.249c3.282.014,6.567.007,9.849.014.464,0,.93.051,1.4.078a10.519,10.519,0,0,1,4.3,1.275,12.54,12.54,0,0,1,5.112,5.112,17.113,17.113,0,0,1,2.048,7.539,14.8,14.8,0,0,1-.406,4.321,10.539,10.539,0,0,1-6.237,7.457,13.238,13.238,0,0,1-4.87,1.084c-.709.024-1.421.014-2.13,0a4.421,4.421,0,0,1-1.019-.1c-1.033-.279-2.075-.535-3.074-.907a7.645,7.645,0,0,1-3.364-2.525,9.205,9.205,0,0,1-1.854-5.766q-.015-3.532,0-7.065a1,1,0,0,0-.406-.981c-.671-.46-1.281-1.016-1.919-1.53-.075,0-.15,0-.228,0,0,3.077-.017,6.152,0,9.229a21.556,21.556,0,0,0,.164,2.294,11.066,11.066,0,0,0,1.9,5.064,7.572,7.572,0,0,0,2.205,2.2h-1.3l-.167.167c.01.038,0,.089.027.119q.992,1.309,1.99,2.621l.065.065c4.032,0,8.063.014,12.1,0a14.3,14.3,0,0,0,2.127-.167,10.313,10.313,0,0,0,5.572-2.8,12.2,12.2,0,0,0,2.917-4.311,10.172,10.172,0,0,0,.814-3.936c-.024-4.018-.01-8.036-.01-12.054v-.515c.269.106.474.174.668.266,2.519,1.217,5.034,2.444,7.556,3.647a.554.554,0,0,1,.365.6q-.015,5.092,0,10.183c0,.549.055,1.1.078,1.646a9.721,9.721,0,0,0,.75,3.33,5.838,5.838,0,0,0,3.534,3.459,6.872,6.872,0,0,0,3.933.17,5.378,5.378,0,0,0,3.653-2.658,5.612,5.612,0,0,0,.6-3.527,6.318,6.318,0,0,0-1.356-3.316,9.546,9.546,0,0,0-6.4-3.2c-.7-.1-1.408-.133-2.147-.2v-.467c0-1.939.055-3.882-.02-5.821a1.554,1.554,0,0,1,1.135-1.813c1.673-.651,3.268-1.5,4.891-2.283,2.239-1.074,4.485-2.133,6.707-3.241,2.542-1.264,5.061-2.573,7.59-3.872a16.692,16.692,0,0,0,5.712-4.724,10.739,10.739,0,0,0,1.936-3.749c.225-.842.382-1.7.569-2.542a17.1,17.1,0,0,1,1.012,6.823,18.78,18.78,0,0,1-.269,2.358,16.349,16.349,0,0,1-4.318,7.845,15.588,15.588,0,0,1-1.892,1.721c-1.356,1.023-2.733,2.028-4.154,2.962-1.667,1.1-3.388,2.116-5.088,3.166v.085c.092.078.174.17.273.242a14.256,14.256,0,0,1,3.51,3.5,11.981,11.981,0,0,1,2.215,7.228c-.01.556,0,1.108,0,1.663,0,.692.211.91.9.91,2.467,0,4.931.007,7.4-.01a3.062,3.062,0,0,0,1.074-.2,9.072,9.072,0,0,0,3.507-2.8c.487-.559.992-1.111,1.53-1.622.491-.463,1.063-.337,1.206.242a4.706,4.706,0,0,1,.17,1.125q.02,4.448,0,8.9a.576.576,0,0,1-.092.341c-.474.6-.924,1.223-1.448,1.779a18.935,18.935,0,0,1-4.349,3.688,7.057,7.057,0,0,1-3.558,1.07c-2.495-.027-4.986-.007-7.481-.007h-.46c0-.392.014-.726,0-1.053-.048-.794-.068-1.592-.181-2.375a1.271,1.271,0,0,0-.811-1.06,1.771,1.771,0,0,0-1.694.337,21.953,21.953,0,0,1-4.062,2.335,22.4,22.4,0,0,1-7.021,1.707,15.969,15.969,0,0,1-4.315-.211,11.828,11.828,0,0,1-6-3.122,15.882,15.882,0,0,1-2.508-3.221h-.082a.471.471,0,0,0-.061.055,18.346,18.346,0,0,1-3.476,4.216,9.116,9.116,0,0,1-5.828,2.123c-3.889.072-7.777.027-11.662.031-.031.048-.061.1-.089.147a.357.357,0,0,0,.051.15c.518.637,1.07,1.247,1.547,1.912a1.4,1.4,0,0,0,1.315.6c2.147-.037,4.294-.014,6.441-.017a21.747,21.747,0,0,0,4.676-.314A13.306,13.306,0,0,0,161.476,221a9.084,9.084,0,0,0,3.013-2.859c.2.245.378.487.579.705a11.325,11.325,0,0,0,3.783,2.686,15.383,15.383,0,0,0,5.606,1.319,26.074,26.074,0,0,0,6.2-.389,21.848,21.848,0,0,0,6.019-1.973c.658-.344,1.3-.723,2.011-1.121v3.425c.02.02.041.044.061.065.167,0,.334.014.5.01l9.157-.082c.61,0,1.22.017,1.827-.007a5.934,5.934,0,0,0,1.009-.136,9.384,9.384,0,0,0,4.083-1.946c.794-.641,1.517-1.374,2.26-2.079.32-.3.61-.637.975-1.022v5.2c.02.02.041.044.065.065q5.833.005,11.669.014a6.2,6.2,0,0,0,2.893-.77,16.3,16.3,0,0,0,3.994-3.043c.262-.259.515-.532.733-.76.716.729,1.333,1.465,2.059,2.076a10.97,10.97,0,0,0,6.693,2.478,25.488,25.488,0,0,0,6-.31,8.051,8.051,0,0,0,3.21-1.155c.256.477.508.941.757,1.407l.065.065a.664.664,0,0,0,.082.01q6.794,0,13.585-.007a.7.7,0,0,0,.453-.2c.583-.62,1.142-1.258,1.65-1.827,1.029.409,1.98.8,2.941,1.162a15.138,15.138,0,0,0,4.512.859,28.784,28.784,0,0,0,3.6-.078,26.686,26.686,0,0,0,3.033-.406,16.119,16.119,0,0,0,7.971-3.967,17.181,17.181,0,0,0,4.676-6.261,29.817,29.817,0,0,0,.964-3.227c.123-.433.181-.886.266-1.329v-3.326C290.359,203.87,290.311,203.488,290.236,203.11Zm-83.082-6.843a8.368,8.368,0,0,1-1.878,3.367c-1.121,1.271-2.317,2.478-3.517,3.677a15.574,15.574,0,0,1-1.51,1.2,14.386,14.386,0,0,1-1.264-.968c-1.026-.958-2.052-1.915-3.016-2.934a11.043,11.043,0,0,1-2.7-4.2,3.332,3.332,0,0,1,1.653-4.229,4.053,4.053,0,0,1,4.679.123,2.62,2.62,0,0,1,.293.29c.092.089.181.17.252.239.293-.225.573-.446.859-.658a3.658,3.658,0,0,1,3.193-.542,4.361,4.361,0,0,1,2.706,1.915A3.406,3.406,0,0,1,207.154,196.267Zm55.081,19.348c-.661,1.135-1.448,2.2-2.208,3.275a10.406,10.406,0,0,1-.934,1.043.35.35,0,0,1-.225.119c-3.183.007-6.366,0-9.614,0a3.153,3.153,0,0,1,.2-.249,32.133,32.133,0,0,0,5.023-6.554,17.1,17.1,0,0,0,2.164-5.6,10.937,10.937,0,0,0,.177-1.919c.017-2.8.034-5.6-.017-8.391a1.428,1.428,0,0,1,.63-1.22L260,193.959c.818-.685,1.639-1.363,2.454-2.048.617-.521,1.224-1.053,1.84-1.578.371-.32.746-.634,1.189-1.009v5.46c0,3.074.007,6.148,0,9.222a22.217,22.217,0,0,1-1.05,6.349A24.392,24.392,0,0,1,262.235,215.614Zm24.354-3.967a31.058,31.058,0,0,1-2.2,3.238,13.088,13.088,0,0,1-5.242,3.987,16.992,16.992,0,0,1-3.947,1.111,23.571,23.571,0,0,1-5.064.221,11.856,11.856,0,0,1-5.845-1.731c-.072-.044-.143-.082-.215-.126a21.141,21.141,0,0,0,3.435-9.212,5.563,5.563,0,0,0,3.541,1.6,7.489,7.489,0,0,0,3.783-.412,4.711,4.711,0,0,0,2.682-2.808,6.042,6.042,0,0,0-1.06-6.257,8.2,8.2,0,0,0-3.517-2.478,11.124,11.124,0,0,0-4.141-.845,4.656,4.656,0,0,1-.722-.109v-10.66c.545.467,1.056.961,1.629,1.373.849.613,1.718,1.2,2.617,1.731a37.959,37.959,0,0,0,6.789,2.75,13.848,13.848,0,0,1,4.318,2.508,12.261,12.261,0,0,1,2.992,3.814,11.73,11.73,0,0,1,1.254,3.981,18.171,18.171,0,0,1,.235,2.778A11.326,11.326,0,0,1,286.589,211.647Z" transform="translate(-133.303 -167.69)" fill="#fff"/>
        <path id="Path_177" data-name="Path 177" d="M166.868,241.388a4.1,4.1,0,1,1-4.137-4.168A4.042,4.042,0,0,1,166.868,241.388Z" transform="translate(-150.023 -213.524)" fill="#fff"/>
        <path id="Path_178" data-name="Path 178" d="M438.355,276.239a4.1,4.1,0,1,1-8.193-.024,4.1,4.1,0,1,1,8.193.024Z" transform="translate(-328.987 -236.535)" fill="#fff"/>
      </g>
    </g>
    <g id="heart" transform="translate(193.052 166.511)">
      <g id="Group_27" data-name="Group 27">
        <path id="Path_179" data-name="Path 179" d="M322.723,242.293a8.369,8.369,0,0,1-1.878,3.367c-1.121,1.271-2.318,2.478-3.517,3.677a15.584,15.584,0,0,1-1.51,1.2,14.4,14.4,0,0,1-1.264-.968c-1.026-.958-2.052-1.915-3.016-2.934a11.043,11.043,0,0,1-2.7-4.2,3.332,3.332,0,0,1,1.653-4.229,4.052,4.052,0,0,1,4.679.123,2.615,2.615,0,0,1,.293.29c.092.089.181.17.252.239.293-.225.573-.446.859-.658a3.658,3.658,0,0,1,3.193-.542,4.361,4.361,0,0,1,2.706,1.915A3.405,3.405,0,0,1,322.723,242.293Z" transform="translate(-308.62 -237.512)" fill="#fb815e"/>
      </g>
    </g>
    <g id="hat" transform="translate(207.739 129.803)">
      <path id="Path_180" data-name="Path 180" d="M393.486,146.552a9.246,9.246,0,0,0-2.43-3.97,11.881,11.881,0,0,0-1.9-1.411,8.468,8.468,0,0,0-4.349-1.373c-.4-.01-.8,0-1.125,0-.177-1.087-.32-2.11-.515-3.125a8.348,8.348,0,0,0-1.868-3.936,8.655,8.655,0,0,0-6.21-2.9,9.668,9.668,0,0,0-5.381,1.148,8.4,8.4,0,0,0-2.4,1.823c-.719.825-1.305,1.765-1.973,2.692-.1-.024-.293-.068-.487-.126a9.92,9.92,0,0,0-4.182-.3,10.919,10.919,0,0,0-4.267,1.537,9.558,9.558,0,0,0-3.609,3.728,9.05,9.05,0,0,0-1.012,3.674,19.64,19.64,0,0,0,.024,3.411,9.915,9.915,0,0,0,1.442,3.957,13.315,13.315,0,0,0,2.934,3.4,14.928,14.928,0,0,0,3.439,2.1,14.655,14.655,0,0,0,5.726,1.35c.808.01,1.615,0,2.474,0a11.276,11.276,0,0,1,.3,1.2c.218,1.564.487,3.129.593,4.7.1,1.506.031,3.023.017,4.536,0,.521-.041,1.043-.092,1.564-.092.934-.2,1.868-.307,2.8.075,0,.15,0,.228,0,.385-.474.8-.927,1.149-1.431.76-1.094,1.52-2.191,2.215-3.326a18.384,18.384,0,0,0,2.273-6c.215-1.06.371-2.13.555-3.2a.239.239,0,0,1,.089,0,13.036,13.036,0,0,0,5.153,1.288,22.816,22.816,0,0,0,2.641-.068,13.1,13.1,0,0,0,4.206-.92,11.28,11.28,0,0,0,3.36-1.99,10.135,10.135,0,0,0,2.7-3.718,11.041,11.041,0,0,0,.9-3.582A9.616,9.616,0,0,0,393.486,146.552Zm-5.514,3.6a2.971,2.971,0,0,0-.324.286c-.365-.528-.709-1.043-1.073-1.54a3.052,3.052,0,0,0-.532-.576.39.39,0,0,0-.348.051,6.4,6.4,0,0,1-1.84,2.423,17.294,17.294,0,0,1-8.445,4.345,9.918,9.918,0,0,1-5.681-.406,15.106,15.106,0,0,1-5.695-4.032,17.5,17.5,0,0,1-2.907-4.277,5.358,5.358,0,0,1-.719-2.829,10.063,10.063,0,0,0-2.525,1.544,5.349,5.349,0,0,1-.344-.685.433.433,0,0,1,.068-.371,8.893,8.893,0,0,1,3.463-2.222c.283.814.532,1.605.835,2.375a13.259,13.259,0,0,0,3.3,4.863,12.757,12.757,0,0,0,4.056,2.539,13.865,13.865,0,0,0,8.506.518,13.527,13.527,0,0,0,7.631-5.5c.331-.48.331-.484.75-.085a10.349,10.349,0,0,1,2,2.634C388.35,149.6,388.367,149.892,387.972,150.151Z" transform="translate(-351.715 -129.803)" fill="#fff"/>
    </g>
  </g>
</svg>
