<svg xmlns="http://www.w3.org/2000/svg" width="127.266" height="55.176" viewBox="0 0 127.266 55.176"><g transform="translate(0 0.001)"><g transform="translate(0 10.459)"><g transform="translate(0)"><path d="M127.117,66.577a14.067,14.067,0,0,0-1.742-4.715,10.764,10.764,0,0,0-3.224-3.478,21.745,21.745,0,0,0-4.025-1.99,42.909,42.909,0,0,1-4.856-2.073,9.2,9.2,0,0,1-2.692-2.242.506.506,0,0,0-.331-.185c-.707-.017-1.413-.011-2.12-.006a.461.461,0,0,0-.279.066c-.759.632-1.507,1.275-2.258,1.913-.618.525-1.234,1.052-1.852,1.571-.8.671-1.6,1.333-2.393,2-.486.406-.961.822-1.447,1.228-.635.533-1.284,1.052-1.908,1.6a.726.726,0,0,0-.2.483c-.014,2.255-.008,4.51-.008,6.766v.4c-.05-.066-.072-.083-.075-.1a11.849,11.849,0,0,0-1.2-4.1,12.663,12.663,0,0,0-10.94-7.18,9.874,9.874,0,0,0-1.758.124,8.489,8.489,0,0,0-4.213,1.938,25.786,25.786,0,0,0-2.3,2.165,14.92,14.92,0,0,0-1.527,1.838c-.977,1.4-1.9,2.838-2.852,4.254a3.98,3.98,0,0,1-.414.45l-.1-.047a4.616,4.616,0,0,1-.08-.61q-.008-5.367-.006-10.739c0-1.234-.006-2.468-.008-3.7-.017-.017-.033-.036-.052-.052l-1.949-.2c-.017.017-.036.033-.052.052,0,.132-.008.268-.008.4q0,7.565.006,15.133a4.6,4.6,0,0,0,.133,1.046,1.75,1.75,0,0,0,1.281,1.389,1.915,1.915,0,0,0,1.938-.549c.017-.017.036-.033.052-.052.1-.121.2-.237.284-.364.809-1.234,1.59-2.487,2.432-3.7a23.688,23.688,0,0,1,3.1-3.672,14.531,14.531,0,0,1,2.435-1.891,7.255,7.255,0,0,1,5.165-1,8.98,8.98,0,0,1,5.212,2.984,12.726,12.726,0,0,1,2.283,3.625,14.19,14.19,0,0,1,1.057,4.886,15.752,15.752,0,0,1-.127,2.159,8.31,8.31,0,0,1-.845,2.9,8.822,8.822,0,0,1-2.117,2.813,8.968,8.968,0,0,1-2.89,1.706,11.747,11.747,0,0,1-5.162.616,10.755,10.755,0,0,1-2.83-.616,7.3,7.3,0,0,1-4.409-4.453h-.2c-.312.373-.607.762-.941,1.113a16.564,16.564,0,0,1-3.741,3.136,6.115,6.115,0,0,1-3.13.95c-1.919-.022-3.84-.006-5.758-.006h-.375V50.128a.649.649,0,0,0-.006-.232.778.778,0,0,0-.2-.329c-.505-.37-1.066-.679-1.535-1.09a8.958,8.958,0,0,1-2.286-3.147,14.694,14.694,0,0,1-1.157-5.5c-.019-.627-.008-1.256-.011-1.885-.017-.017-.036-.033-.052-.052q-1.582.3-3.169.6c-.646.119-1.3.229-1.946.345-.017.017-.033.036-.052.052a6.112,6.112,0,0,1-.019.872,7.641,7.641,0,0,1-.972,2.785,8.072,8.072,0,0,1-2.617,2.868c-1.4.859-2.868,1.609-4.323,2.377-.986.519-2,.983-3,1.477q-2.679,1.321-5.355,2.642-2.973,1.466-5.96,2.91a.5.5,0,0,1-.384,0c-.643-.293-1.278-.6-1.916-.914-1.736-.847-3.473-1.7-5.212-2.545-.674-.326-1.358-.629-2.037-.941-.017.017-.036.033-.052.052v2.2a.743.743,0,0,1-.091-.113A10.93,10.93,0,0,0,16.5,48.432a12.289,12.289,0,0,0-5.781-1.46c-.74-.014-1.48,0-2.219,0q-4.186,0-8.376.011c0,.061,0,.124,0,.185.549.558,1.093,1.124,1.659,1.668a.768.768,0,0,0,.486.2c2.658.011,5.32.006,7.978.011.375,0,.754.041,1.132.064a8.516,8.516,0,0,1,3.484,1.032,10.158,10.158,0,0,1,4.141,4.141,13.862,13.862,0,0,1,1.659,6.106,11.986,11.986,0,0,1-.329,3.5,8.726,8.726,0,0,1-2.358,4.254,8.639,8.639,0,0,1-2.694,1.786,10.717,10.717,0,0,1-3.945.878c-.574.019-1.151.011-1.725,0a3.58,3.58,0,0,1-.825-.083c-.836-.226-1.681-.433-2.49-.734a6.193,6.193,0,0,1-2.725-2.046,7.457,7.457,0,0,1-1.5-4.671q-.012-2.861,0-5.723a.806.806,0,0,0-.329-.8C1.2,56.383.708,55.933.192,55.516l-.185,0c0,2.493-.014,4.983,0,7.476a17.459,17.459,0,0,0,.133,1.858,8.963,8.963,0,0,0,1.54,4.1,6.132,6.132,0,0,0,1.786,1.781H2.414l-.135.135c.008.031,0,.072.022.1q.8,1.06,1.612,2.123l.052.052c3.266,0,6.531.011,9.8,0a11.593,11.593,0,0,0,1.723-.135A8.354,8.354,0,0,0,20,70.738a9.885,9.885,0,0,0,2.363-3.492,8.238,8.238,0,0,0,.66-3.188c-.019-3.255-.008-6.509-.008-9.764v-.417c.218.086.384.141.541.215,2.04.986,4.077,1.979,6.12,2.954a.449.449,0,0,1,.3.483q-.012,4.124,0,8.248c0,.444.044.889.063,1.333a7.874,7.874,0,0,0,.607,2.7,4.729,4.729,0,0,0,2.863,2.8,5.567,5.567,0,0,0,3.186.138,4.357,4.357,0,0,0,2.959-2.153,4.546,4.546,0,0,0,.483-2.857,5.116,5.116,0,0,0-1.1-2.686,7.732,7.732,0,0,0-5.187-2.59c-.566-.077-1.14-.108-1.739-.163V61.92c0-1.571.044-3.144-.017-4.715a1.259,1.259,0,0,1,.919-1.469c1.355-.527,2.647-1.217,3.961-1.85,1.814-.87,3.633-1.728,5.433-2.625,2.059-1.024,4.1-2.084,6.148-3.136A13.524,13.524,0,0,0,53.175,44.3a8.7,8.7,0,0,0,1.568-3.037c.182-.682.309-1.378.461-2.059a13.853,13.853,0,0,1,.82,5.527,15.21,15.21,0,0,1-.218,1.91A13.242,13.242,0,0,1,52.308,53a12.627,12.627,0,0,1-1.532,1.394c-1.1.828-2.214,1.643-3.365,2.4-1.35.892-2.744,1.714-4.121,2.565v.069c.075.063.141.138.221.2a11.548,11.548,0,0,1,2.843,2.832,9.706,9.706,0,0,1,1.794,5.855c-.008.45,0,.9,0,1.347,0,.56.171.737.729.737,2,0,3.995.006,5.993-.008a2.481,2.481,0,0,0,.87-.166,7.349,7.349,0,0,0,2.841-2.272c.395-.453.8-.9,1.239-1.314.4-.375.861-.273.977.2a3.811,3.811,0,0,1,.138.911q.017,3.6,0,7.205a.467.467,0,0,1-.075.276c-.384.486-.748.991-1.173,1.441a15.337,15.337,0,0,1-3.522,2.987,5.717,5.717,0,0,1-2.882.867c-2.021-.022-4.039-.006-6.059-.006h-.373c0-.317.011-.588,0-.853-.039-.643-.055-1.289-.146-1.924a1.029,1.029,0,0,0-.657-.859,1.434,1.434,0,0,0-1.372.273,17.762,17.762,0,0,1-3.291,1.891A18.143,18.143,0,0,1,35.7,80.419a12.936,12.936,0,0,1-3.495-.171,9.579,9.579,0,0,1-4.861-2.529A12.87,12.87,0,0,1,25.31,75.11h-.066a.357.357,0,0,0-.05.044,14.861,14.861,0,0,1-2.816,3.415,7.384,7.384,0,0,1-4.721,1.72c-3.15.058-6.3.022-9.447.025-.025.039-.05.077-.072.119a.289.289,0,0,0,.041.121c.42.516.867,1.01,1.253,1.549a1.13,1.13,0,0,0,1.066.489c1.739-.03,3.478-.011,5.217-.014a17.618,17.618,0,0,0,3.787-.254,10.778,10.778,0,0,0,3.315-1.259,7.359,7.359,0,0,0,2.44-2.316c.163.2.306.395.469.572A9.177,9.177,0,0,0,28.794,81.5a12.466,12.466,0,0,0,4.541,1.069,21.134,21.134,0,0,0,5.019-.315,17.7,17.7,0,0,0,4.875-1.6c.533-.279,1.052-.585,1.629-.908v2.774l.05.052c.135,0,.271.011.4.008l7.418-.066c.494,0,.988.014,1.48-.006a4.806,4.806,0,0,0,.817-.11,7.6,7.6,0,0,0,3.307-1.576c.643-.519,1.228-1.113,1.83-1.684.259-.246.494-.516.79-.828v4.21c.017.017.033.036.052.052q4.725,0,9.452.011a5.029,5.029,0,0,0,2.344-.624,13.2,13.2,0,0,0,3.235-2.465c.213-.21.417-.43.594-.616.58.591,1.079,1.187,1.667,1.681a8.887,8.887,0,0,0,5.422,2.007,20.661,20.661,0,0,0,4.861-.251,6.521,6.521,0,0,0,2.6-.936c.207.386.411.762.613,1.14l.052.052a.541.541,0,0,0,.066.008q5.5,0,11-.006a.565.565,0,0,0,.367-.166c.472-.5.925-1.019,1.336-1.48.834.331,1.6.649,2.382.941a12.262,12.262,0,0,0,3.655.7,23.356,23.356,0,0,0,2.912-.064,21.544,21.544,0,0,0,2.457-.329,13.057,13.057,0,0,0,6.457-3.213,13.917,13.917,0,0,0,3.787-5.071,24.148,24.148,0,0,0,.781-2.614c.1-.351.146-.717.215-1.077V67.5C127.216,67.193,127.177,66.884,127.117,66.577ZM104.436,76.706c-.536.919-1.173,1.781-1.789,2.653a8.432,8.432,0,0,1-.756.845.284.284,0,0,1-.182.1c-2.578.006-5.157,0-7.788,0a2.527,2.527,0,0,1,.16-.2,26.03,26.03,0,0,0,4.069-5.309A13.846,13.846,0,0,0,99.9,70.257a8.87,8.87,0,0,0,.144-1.554c.014-2.266.028-4.533-.014-6.8a1.157,1.157,0,0,1,.511-.988l2.084-1.753c.663-.555,1.328-1.1,1.988-1.659.5-.422.991-.853,1.491-1.278.3-.259.6-.513.963-.817v4.422c0,2.49.006,4.98,0,7.47a17.994,17.994,0,0,1-.85,5.143A19.757,19.757,0,0,1,104.436,76.706Zm19.727-3.213a25.166,25.166,0,0,1-1.781,2.623,10.6,10.6,0,0,1-4.246,3.23,13.764,13.764,0,0,1-3.2.9,19.109,19.109,0,0,1-4.1.18,9.6,9.6,0,0,1-4.734-1.4c-.058-.036-.116-.066-.174-.1a17.125,17.125,0,0,0,2.783-7.462,4.506,4.506,0,0,0,2.868,1.3,6.067,6.067,0,0,0,3.064-.334,3.816,3.816,0,0,0,2.173-2.275,4.894,4.894,0,0,0-.859-5.068,6.646,6.646,0,0,0-2.849-2.007,9.011,9.011,0,0,0-3.354-.685,3.77,3.77,0,0,1-.585-.088V53.664c.442.378.856.778,1.32,1.112.687.5,1.391.974,2.12,1.4a30.754,30.754,0,0,0,5.5,2.228,11.217,11.217,0,0,1,3.5,2.032,9.93,9.93,0,0,1,2.424,3.089,9.5,9.5,0,0,1,1.016,3.224,14.731,14.731,0,0,1,.19,2.25A9.176,9.176,0,0,1,124.163,73.493Z" transform="translate(0 -37.887)" fill="#1780df"/><path d="M32.007,110.793a3.321,3.321,0,1,1-3.351-3.376A3.274,3.274,0,0,1,32.007,110.793Z" transform="translate(-18.363 -88.223)" fill="#1780df"/><path d="M303.494,145.655a3.318,3.318,0,1,1-6.636-.019,3.318,3.318,0,1,1,6.636.019Z" transform="translate(-214.906 -113.495)" fill="#1780df"/></g></g><g transform="translate(60.293 0)"><path d="M252.5,16.441a8.942,8.942,0,0,1-.732,2.9,8.213,8.213,0,0,1-2.189,3.012,9.143,9.143,0,0,1-2.722,1.612,10.615,10.615,0,0,1-3.407.745,18.488,18.488,0,0,1-2.139.055,10.56,10.56,0,0,1-4.174-1.043.193.193,0,0,0-.072,0c-.149.864-.276,1.731-.45,2.589a14.887,14.887,0,0,1-1.841,4.859c-.563.919-1.179,1.808-1.794,2.694-.282.409-.618.776-.93,1.159l-.185,0c.083-.756.174-1.513.248-2.269.041-.422.072-.845.075-1.267.011-1.226.066-2.454-.014-3.674-.086-1.275-.3-2.542-.48-3.81a9.113,9.113,0,0,0-.24-.972c-.7,0-1.35.008-2,0a11.87,11.87,0,0,1-4.638-1.093,12.091,12.091,0,0,1-2.785-1.7,10.785,10.785,0,0,1-2.377-2.758,8.032,8.032,0,0,1-1.168-3.2,15.916,15.916,0,0,1-.019-2.763,7.333,7.333,0,0,1,.82-2.976,7.742,7.742,0,0,1,2.923-3.02,8.845,8.845,0,0,1,3.456-1.245,8.036,8.036,0,0,1,3.387.243c.157.047.317.083.395.1.541-.751,1.016-1.513,1.6-2.181A6.8,6.8,0,0,1,232.989.954a7.831,7.831,0,0,1,4.359-.93,7.011,7.011,0,0,1,5.03,2.349,6.762,6.762,0,0,1,1.513,3.188c.157.823.273,1.651.417,2.531.265,0,.588-.006.911,0a6.858,6.858,0,0,1,3.522,1.113,9.62,9.62,0,0,1,1.538,1.143,7.49,7.49,0,0,1,1.968,3.216A7.791,7.791,0,0,1,252.5,16.441Z" transform="translate(-218.412 0)" fill="#1780df"/><g transform="translate(2.894 3.105)"><g transform="translate(0 13.534)"><path d="M234.259,60.291a.4.4,0,0,0-.492.271,8.627,8.627,0,0,1-2.269,3.2c-.193.159-.863.66-1.364.4a.619.619,0,0,1-.219-.194,1.749,1.749,0,0,1-.393-.167l-.353-.272a1.324,1.324,0,0,1-.256-.328.3.3,0,0,1-.02-.025,1.825,1.825,0,0,0,.881,1.7,2.055,2.055,0,0,0,2.23-.5,9.294,9.294,0,0,0,2.526-3.593A.4.4,0,0,0,234.259,60.291Z" transform="translate(-228.894 -60.275)" fill="#f3f3f3"/><g transform="translate(0.456)" opacity="0.1"><path d="M234.963,60.562a8.628,8.628,0,0,1-2.269,3.2c-.193.159-.863.66-1.364.4a.619.619,0,0,1-.219-.194,1.749,1.749,0,0,1-.393-.167l-.173-.134a1.1,1.1,0,0,0,.8.952c2.036.566,4.108-4.332,4.108-4.332A.4.4,0,0,0,234.963,60.562Z" transform="translate(-230.545 -60.275)" fill="#223663"/></g></g><g transform="translate(2.825)"><path d="M242.584,12.6a2.056,2.056,0,0,0-1.842-1.352,1.964,1.964,0,0,0-1.613,1.505,1.683,1.683,0,0,1,.948-.269c.022,0,.042,0,.063,0a.881.881,0,0,1,.647-.446c.562-.033.974.694,1.087.917a8.625,8.625,0,0,1,.793,3.842.4.4,0,0,0,.788.1A9.293,9.293,0,0,0,242.584,12.6Z" transform="translate(-239.129 -11.248)" fill="#f3f3f3"/><g transform="translate(0.542 0.371)" opacity="0.1"><path d="M242.408,12.6c-.608-.087-1.03.276-1.315.9a1.929,1.929,0,0,1,.406-.042c.022,0,.042,0,.063,0a.881.881,0,0,1,.647-.446c.562-.033.974.694,1.087.917a8.624,8.624,0,0,1,.793,3.842.4.4,0,0,0,.341.446S244.5,12.9,242.408,12.6Z" transform="translate(-241.093 -12.592)" fill="#223663"/></g></g><g transform="translate(22.55 4.322)"><path d="M310.876,31.746a.4.4,0,0,0,.484-.284,8.627,8.627,0,0,1,2.184-3.259c.189-.164.845-.682,1.353-.439a1.025,1.025,0,0,1,.465.891,1.528,1.528,0,0,1,.793.488,2.005,2.005,0,0,0-.917-2.1,2.056,2.056,0,0,0-2.216.557,9.3,9.3,0,0,0-2.431,3.658A.4.4,0,0,0,310.876,31.746Z" transform="translate(-310.579 -26.906)" fill="#f3f3f3"/><g transform="translate(0.255 0.392)" opacity="0.1"><path d="M312.029,32.491a8.626,8.626,0,0,1,2.184-3.259c.189-.164.845-.682,1.353-.439a1.025,1.025,0,0,1,.465.891,1.568,1.568,0,0,1,.438.183c.01-.783-.247-1.355-.935-1.509-1.14-.255-2.293,1.109-3.059,2.389a12.845,12.845,0,0,0-.973,2.02A.439.439,0,0,0,312.029,32.491Z" transform="translate(-311.502 -28.327)" fill="#223663"/></g></g><g transform="translate(20.664 16.504)"><g transform="translate(0 0.005)"><path d="M307.517,75.791l-.273.037a1.473,1.473,0,0,1-.2.036.852.852,0,0,1-.62.407c-.562.031-.971-.7-1.083-.922a8.621,8.621,0,0,1-.776-3.845.4.4,0,1,0-.787-.108,9.3,9.3,0,0,0,.852,4.309,2.056,2.056,0,0,0,1.836,1.36,1.929,1.929,0,0,0,1.582-1.424,1.291,1.291,0,0,1-.365.086A1.8,1.8,0,0,1,307.517,75.791Z" transform="translate(-303.749 -71.052)" fill="#f3f3f3"/></g><g transform="translate(0.43)" opacity="0.1"><path d="M308.373,75.815a1.475,1.475,0,0,1-.2.036.852.852,0,0,1-.62.407c-.562.031-.971-.7-1.083-.922a8.621,8.621,0,0,1-.776-3.845.44.44,0,0,0-.382-.456,12.853,12.853,0,0,0,.129,2.238c.22,1.475.766,3.176,1.916,3.375.648.112,1.087-.26,1.378-.9-.03.01-.059.023-.09.031Z" transform="translate(-305.307 -71.035)" fill="#223663"/></g></g><g transform="translate(4.845 4.565)"><g transform="translate(0)"><path d="M247.941,28.2c2.294-.157,5.074-.223,7.368-.38a6.347,6.347,0,0,1,1.5.017,6.973,6.973,0,0,1,2.219.978,30.433,30.433,0,0,0,6.1,2.877s-.438,1.464-.694,2.16a17.968,17.968,0,0,0-1.367,6.626s-5.028,1.835-8.323,1.223c-4.178-.777-8.268-4.432-8.3-4.568-.021-.094.906-2.756,1.336-5.258A16.983,16.983,0,0,0,247.941,28.2Z" transform="translate(-246.447 -27.784)" fill="#f3f3f3"/></g><g transform="translate(0.552 0.409)"><g transform="translate(1.399 0.379)"><path d="M253.554,30.877a.039.039,0,0,1-.031-.035c-.005-.1-.01-.151-.01-.151a.038.038,0,0,1,.035-.041l.152-.01a.038.038,0,1,1,0,.076l-.114.007c0,.026,0,.065.007.114a.038.038,0,0,1-.036.04Z" transform="translate(-253.514 -30.64)" fill="#bcbcbc"/></g><g transform="translate(1.852)"><path d="M270.387,32.851h-.005l-.285-.1a.038.038,0,0,1-.023-.049.039.039,0,0,1,.049-.023l.284.1a.038.038,0,0,1-.02.073Zm-.567-.206-.006,0-.282-.109a.038.038,0,0,1-.022-.05.038.038,0,0,1,.049-.022l.281.109a.038.038,0,0,1-.021.073ZM255.188,29.7a.038.038,0,0,1,0-.076l.3-.018a.038.038,0,0,1,0,.076l-.3.018Zm14.07,2.723-.007,0-.279-.117a.038.038,0,0,1-.02-.05.038.038,0,0,1,.05-.02l.278.116a.038.038,0,0,1-.022.073Zm-13.467-2.758a.038.038,0,0,1-.031-.035.038.038,0,0,1,.036-.04l.3-.016a.038.038,0,0,1,0,.076l-.3.016ZM268.7,32.187l-.008,0-.276-.124a.038.038,0,0,1-.019-.051.038.038,0,0,1,.05-.019l.275.124a.038.038,0,0,1-.023.072Zm-12.308-2.553a.038.038,0,0,1,.005-.075l.3-.015a.039.039,0,0,1,.04.036.038.038,0,0,1-.036.04l-.3.015Zm11.759,2.3-.009,0-.272-.131a.038.038,0,1,1,.033-.068l.272.13a.038.038,0,0,1-.023.072ZM257,29.605A.038.038,0,0,1,257,29.53l.3-.014a.038.038,0,0,1,0,.076l-.3.014Zm10.613,2.066-.01,0-.27-.137a.038.038,0,0,1,.035-.068l.269.137a.038.038,0,0,1-.024.071ZM257.6,29.578a.038.038,0,0,1,.006-.075l.3-.014a.038.038,0,1,1,0,.076l-.3.014Zm9.473,1.817-.01,0-.267-.142a.038.038,0,1,1,.036-.067l.266.142a.038.038,0,0,1,.016.052A.039.039,0,0,1,267.073,31.395ZM258.2,29.552a.038.038,0,0,1,.006-.076l.3-.013a.038.038,0,0,1,0,.076l-.3.013Zm8.337,1.557-.011,0-.265-.145a.038.038,0,0,1,.037-.067l.264.145a.038.038,0,0,1-.026.071Zm-7.733-1.584a.038.038,0,0,1,.006-.076l.3-.014a.038.038,0,0,1,0,.076l-.3.014Zm7.2,1.292-.011,0-.263-.148a.038.038,0,0,1,.038-.067l.263.148a.038.038,0,0,1-.026.071Zm-6.6-1.32a.038.038,0,0,1,.006-.076l.3-.014a.038.038,0,1,1,0,.076l-.3.014Zm.6-.029a.038.038,0,0,1,.005-.076l.3-.015a.038.038,0,0,1,0,.076l-.3.015Zm5.471,1.051-.012,0-.262-.15a.038.038,0,0,1-.014-.052.038.038,0,0,1,.052-.014l.262.15a.038.038,0,0,1-.026.071Zm-4.867-1.083a.038.038,0,0,1,.005-.076l.3-.017a.039.039,0,0,1,.04.036.038.038,0,0,1-.036.04l-.3.017Zm4.342.782-.011,0-.262-.15a.038.038,0,1,1,.038-.066l.259.148A.04.04,0,0,1,265,30.2.037.037,0,0,1,264.962,30.219Zm-3.739-.818a.038.038,0,0,1,.005-.076l.3-.019a.038.038,0,0,1,0,.076l-.3.019Zm3.214.521-.011,0c-.1-.051-.182-.1-.267-.138a.038.038,0,0,1,.034-.068c.085.042.173.088.269.14a.038.038,0,0,1,.016.052A.038.038,0,0,1,264.437,29.922Zm-2.611-.561a.038.038,0,0,1,0-.076c.1-.006.2-.012.3-.016a.038.038,0,0,1,0,.076c-.1,0-.2.009-.3.016Zm2.069.294-.008,0c-.095-.041-.188-.078-.278-.11a.038.038,0,0,1,.026-.072c.091.033.187.07.283.112a.038.038,0,0,1,.02.05A.038.038,0,0,1,263.895,29.656Zm-1.465-.315a.038.038,0,0,1,.008-.076c.108,0,.208,0,.3.012a.038.038,0,0,1,.035.041.038.038,0,0,1-.041.035c-.095-.007-.193-.012-.3-.012Zm.9.113h0q-.144-.039-.285-.063v-.038l.011-.037c.1.017.2.038.294.065a.038.038,0,0,1-.017.074Z" transform="translate(-255.157 -29.265)" fill="#bcbcbc"/></g><g transform="translate(17.339 3.609)"><path d="M311.389,42.609h0a.038.038,0,0,1-.025-.047l.033-.11-.11-.037a.038.038,0,0,1-.024-.048.039.039,0,0,1,.048-.024l.145.048a.038.038,0,0,1,.025.047l-.044.146A.038.038,0,0,1,311.389,42.609Z" transform="translate(-311.257 -42.339)" fill="#bcbcbc"/></g><g transform="translate(15.538 4.093)"><path d="M304.765,51.5a.038.038,0,0,1-.031-.037c0-.1,0-.2.006-.305a.038.038,0,1,1,.076,0c0,.1-.005.2-.005.3a.038.038,0,0,1-.038.038Zm.022-.606a.038.038,0,0,1-.031-.04c.007-.1.016-.2.026-.3a.038.038,0,0,1,.042-.034.039.039,0,0,1,.034.042q-.016.152-.026.3a.038.038,0,0,1-.041.035Zm.062-.6a.038.038,0,0,1-.031-.042q.02-.15.043-.3a.038.038,0,0,1,.043-.032.04.04,0,0,1,.032.044q-.023.15-.043.3a.038.038,0,0,1-.043.033Zm.092-.6a.038.038,0,0,1-.03-.044q.024-.135.05-.271l.006-.028a.038.038,0,0,1,.075.015l-.006.029c-.017.089-.034.179-.05.269a.038.038,0,0,1-.044.031Zm.118-.6h0a.038.038,0,0,1-.029-.045q.032-.148.067-.3a.036.036,0,0,1,.046-.028.039.039,0,0,1,.028.046c-.023.1-.045.2-.067.3A.038.038,0,0,1,305.059,49.093Zm.138-.591h0a.039.039,0,0,1-.028-.046q.037-.147.076-.294a.038.038,0,1,1,.074.02q-.039.146-.076.293A.038.038,0,0,1,305.2,48.5Zm.156-.586h0a.038.038,0,0,1-.026-.047q.041-.147.084-.292a.039.039,0,0,1,.048-.026.038.038,0,0,1,.026.047q-.043.145-.084.291A.038.038,0,0,1,305.353,47.916Zm.171-.582h0a.038.038,0,0,1-.025-.048q.045-.146.091-.29a.038.038,0,0,1,.073.023c-.031.1-.061.192-.091.289A.038.038,0,0,1,305.524,47.334Zm.185-.578h0a.038.038,0,0,1-.024-.048c.032-.1.065-.193.1-.288a.038.038,0,1,1,.072.025c-.033.094-.065.19-.1.287A.038.038,0,0,1,305.709,46.756Zm.2-.574H305.9a.038.038,0,0,1-.023-.049q.052-.146.1-.286a.038.038,0,1,1,.072.026q-.051.14-.1.285A.038.038,0,0,1,305.905,46.182Zm.206-.571-.005,0a.038.038,0,0,1-.023-.049c.031-.088.064-.185.1-.287a.038.038,0,0,1,.072.024c-.034.1-.067.2-.1.288A.038.038,0,0,1,306.111,45.611Zm.194-.576h0a.038.038,0,0,1-.024-.048l.092-.289a.039.039,0,0,1,.048-.025.038.038,0,0,1,.025.048c-.03.1-.062.193-.093.289A.038.038,0,0,1,306.3,45.036Zm.184-.579h0a.038.038,0,0,1-.025-.048l.09-.29a.037.037,0,0,1,.047-.025.038.038,0,0,1,.025.048l-.09.29A.038.038,0,0,1,306.489,44.457Z" transform="translate(-304.734 -44.091)" fill="#bcbcbc"/></g><g transform="translate(15.411 11.727)"><path d="M304.3,72.024a.038.038,0,0,1-.029-.025.038.038,0,0,1,.023-.049l.116-.041c0-.041-.005-.083-.007-.124a.038.038,0,1,1,.076,0c0,.051.006.1.009.151a.038.038,0,0,1-.025.039l-.144.051A.038.038,0,0,1,304.3,72.024Z" transform="translate(-304.273 -71.746)" fill="#bcbcbc"/></g><g transform="translate(0 0.827)"><path d="M256.158,44.517a.038.038,0,0,1,.014-.075l.086.016c.07.013.14.025.211.035a.035.035,0,0,1,.032.043.038.038,0,0,1-.043.032q-.108-.016-.214-.036Zm-.3-.063h0q-.147-.034-.295-.073a.038.038,0,0,1-.027-.047.038.038,0,0,1,.047-.027c.1.025.195.049.292.072a.038.038,0,0,1-.016.075Zm.895.153a.038.038,0,0,1,.012-.075c.1.01.2.018.3.025a.038.038,0,1,1,0,.076c-.1-.007-.2-.015-.3-.025Zm-1.48-.306h0q-.146-.043-.29-.089a.038.038,0,0,1-.025-.048.038.038,0,0,1,.048-.025q.144.046.288.088a.038.038,0,0,1-.018.074Zm2.085.345a.038.038,0,0,1,.009-.075c.1,0,.2,0,.3,0a.038.038,0,1,1,0,.076q-.153,0-.3,0Zm-2.661-.53H254.7q-.143-.05-.286-.1a.038.038,0,1,1,.027-.071q.142.053.284.1a.038.038,0,0,1-.02.073Zm-.568-.214-.007,0q-.141-.057-.281-.117a.038.038,0,0,1,.03-.07q.139.059.28.116a.038.038,0,0,1,.021.05A.038.038,0,0,1,254.133,43.9Zm3.835.743a.038.038,0,0,1,.006-.076c.1,0,.2-.007.3-.013a.038.038,0,1,1,0,.076c-.1.006-.2.01-.3.013Zm-4.393-.982-.008,0q-.139-.063-.276-.128a.038.038,0,0,1-.018-.051.038.038,0,0,1,.051-.018q.136.065.274.127a.038.038,0,0,1-.023.072Zm5,.949a.038.038,0,0,1,0-.076q.151-.012.3-.027a.038.038,0,0,1,.008.076c-.1.01-.2.019-.3.027ZM253.027,43.4l-.01,0q-.137-.068-.271-.138a.038.038,0,1,1,.035-.068q.134.07.27.137a.038.038,0,0,1-.024.072Zm6.15,1.148a.038.038,0,0,1,0-.075q.15-.018.3-.039a.038.038,0,1,1,.01.076q-.15.021-.3.039Zm-6.688-1.427-.011,0q-.135-.072-.266-.147a.038.038,0,0,1,.037-.067l.265.146a.038.038,0,0,1,.015.052A.038.038,0,0,1,252.489,43.125Zm7.288,1.345a.038.038,0,0,1-.03-.031.038.038,0,0,1,.032-.044l.3-.049a.038.038,0,1,1,.013.075l-.3.049Zm-7.816-1.642-.012,0-.261-.155a.038.038,0,1,1,.039-.065q.128.077.26.154a.038.038,0,0,1-.026.07Zm8.414,1.54a.038.038,0,0,1,0-.075l.3-.058a.038.038,0,0,1,.015.075l-.3.058A.036.036,0,0,1,260.374,44.368Zm-8.933-1.852-.013,0-.257-.162a.038.038,0,1,1,.041-.064l.256.161a.039.039,0,0,1,.012.053A.038.038,0,0,1,251.441,42.516Zm9.528,1.733a.038.038,0,0,1,0-.075l.3-.065a.038.038,0,1,1,.017.074l-.3.066A.035.035,0,0,1,260.969,44.249Zm-10.038-2.06a.036.036,0,0,1-.014-.006q-.129-.085-.252-.169a.038.038,0,0,1-.01-.053.038.038,0,0,1,.053-.01l.251.169a.038.038,0,0,1-.028.069Zm10.629,1.926a.038.038,0,0,1-.03-.028.038.038,0,0,1,.028-.046l.294-.073a.038.038,0,0,1,.019.074l-.3.073A.036.036,0,0,1,261.56,44.114Zm-11.131-2.268a.036.036,0,0,1-.014-.006l-.248-.176a.038.038,0,1,1,.045-.062l.247.176a.038.038,0,0,1,.009.053A.038.038,0,0,1,250.429,41.847Zm11.719,2.119a.038.038,0,0,1,0-.075l.292-.079a.038.038,0,0,1,.02.074l-.293.079A.04.04,0,0,1,262.148,43.966Zm-12.21-2.475a.037.037,0,0,1-.015-.007l-.242-.183a.038.038,0,0,1,.046-.061q.116.089.242.182a.038.038,0,0,1,.008.053A.038.038,0,0,1,249.938,41.491ZM262.733,43.8a.038.038,0,0,1-.029-.027.038.038,0,0,1,.026-.047l.291-.086a.038.038,0,0,1,.022.073l-.291.086A.04.04,0,0,1,262.733,43.8Zm-13.277-2.681a.04.04,0,0,1-.016-.007q-.125-.1-.237-.19a.038.038,0,0,1-.005-.054.038.038,0,0,1,.054-.005q.111.091.236.19a.038.038,0,0,1,.006.054A.039.039,0,0,1,249.456,41.122Zm13.857,2.506a.038.038,0,0,1,0-.074l.288-.092a.038.038,0,1,1,.024.073l-.289.093A.036.036,0,0,1,263.313,43.629Zm-14.327-2.891a.038.038,0,0,1-.017-.008c-.087-.074-.164-.141-.229-.2a.038.038,0,1,1,.051-.057c.065.059.142.125.228.2a.038.038,0,0,1-.032.067Zm-.449-.408a.039.039,0,0,1-.02-.011c-.058-.06-.065-.076-.068-.089a.1.1,0,0,1,0-.043c.006-.033.022-.09.048-.181a.038.038,0,0,1,.073.021c-.026.089-.04.144-.046.174l0,.011a.5.5,0,0,0,.047.053.038.038,0,0,1-.035.064Zm.078-.567h0a.039.039,0,0,1-.026-.048l.087-.29a.039.039,0,0,1,.047-.025.038.038,0,0,1,.026.047l-.087.29A.038.038,0,0,1,248.615,39.763Zm.174-.581h0a.038.038,0,0,1-.026-.047l.085-.291a.038.038,0,0,1,.047-.026.038.038,0,0,1,.026.047l-.085.291A.038.038,0,0,1,248.789,39.182Zm.169-.582h0a.038.038,0,0,1-.026-.047c.027-.094.054-.192.082-.292a.039.039,0,0,1,.047-.027.038.038,0,0,1,.027.047l-.082.292A.039.039,0,0,1,248.958,38.6Zm.163-.584h0a.038.038,0,0,1-.027-.047q.039-.144.078-.293a.037.037,0,0,1,.046-.027.038.038,0,0,1,.027.046c-.026.1-.052.2-.078.293A.038.038,0,0,1,249.12,38.016Zm.154-.586h0a.038.038,0,0,1-.028-.046q.037-.145.073-.294a.039.039,0,0,1,.046-.028.038.038,0,0,1,.028.046q-.036.149-.074.295A.038.038,0,0,1,249.274,37.43Zm.144-.589h0a.038.038,0,0,1-.028-.046q.035-.147.068-.295a.04.04,0,0,1,.046-.029.038.038,0,0,1,.029.046c-.022.1-.045.2-.068.3A.038.038,0,0,1,249.419,36.841Zm.133-.591h0a.038.038,0,0,1-.029-.045q.031-.147.062-.3a.038.038,0,0,1,.075.015q-.03.149-.062.3A.038.038,0,0,1,249.552,36.25Zm.12-.594a.038.038,0,0,1-.03-.044q.028-.149.054-.3a.038.038,0,0,1,.044-.031.036.036,0,0,1,.031.044q-.026.149-.054.3a.038.038,0,0,1-.045.03Zm.1-.6a.038.038,0,0,1-.03-.043q.022-.15.039-.3a.038.038,0,0,1,.076.009c-.012.1-.025.2-.039.3a.038.038,0,0,1-.043.032Zm.071-.6a.038.038,0,0,1-.031-.041c.009-.1.018-.2.025-.3a.038.038,0,1,1,.076.006q-.011.149-.025.3a.038.038,0,0,1-.041.034Zm.044-.6a.038.038,0,0,1-.031-.039q.008-.154.013-.3a.038.038,0,0,1,.039-.037.038.038,0,0,1,.037.039c0,.1-.007.2-.013.3a.038.038,0,0,1-.04.036Zm.021-.606a.038.038,0,0,1-.031-.038c0-.105,0-.206,0-.3a.038.038,0,1,1,.076,0c0,.1,0,.2,0,.3a.038.038,0,0,1-.039.038Zm0-.606a.038.038,0,0,1-.031-.037c0-.111-.005-.213-.008-.3a.038.038,0,0,1,.076,0c0,.09.006.192.008.3a.038.038,0,0,1-.038.039Z" transform="translate(-248.447 -32.262)" fill="#bcbcbc"/></g></g><g transform="translate(0 5.195)" opacity="0.06"><path d="M263.578,50.288a10.77,10.77,0,0,0-.509,3.814s-5.028,1.835-8.323,1.223c-4.178-.777-8.268-4.432-8.3-4.568-.019-.086.667-1.878,1.129-4.155,0,0,5.592,1.541,8.338,2.051S263.578,50.288,263.578,50.288Z" transform="translate(-246.447 -46.602)" fill="#223663"/></g></g></g></g><g transform="translate(48.397 29.733)"><path d="M186.74,111.582a6.778,6.778,0,0,1-1.521,2.727c-.908,1.03-1.877,2.007-2.849,2.979a12.623,12.623,0,0,1-1.223.974,11.661,11.661,0,0,1-1.024-.784c-.831-.776-1.662-1.551-2.443-2.377a8.945,8.945,0,0,1-2.186-3.4,2.7,2.7,0,0,1,1.339-3.426,3.283,3.283,0,0,1,3.79.1,2.118,2.118,0,0,1,.237.235c.075.072.146.138.2.193.237-.182.464-.362.7-.533a2.963,2.963,0,0,1,2.587-.439,3.533,3.533,0,0,1,2.192,1.551A2.759,2.759,0,0,1,186.74,111.582Z" transform="translate(-175.317 -107.709)" fill="#fb815e"/></g></g></svg>