<svg xmlns="http://www.w3.org/2000/svg" width="65" height="65" viewBox="0 0 65 65">
  <g id="Group_44239" data-name="Group 44239" transform="translate(3237 4343)">
    <rect id="Rectangle_5514" data-name="Rectangle 5514" width="65" height="65" rx="5" transform="translate(-3237 -4343)" fill="#c5e1fb"/>
    <path id="Path_29863" data-name="Path 29863" d="M388.228,244.452v1.119a28.319,28.319,0,0,1-2.588,11.786,4.6,4.6,0,0,1-4.167,2.665,4.551,4.551,0,0,1-3.243-1.344l-3.915-3.914a6.647,6.647,0,0,0-9.4,0L361,258.679a4.556,4.556,0,0,1-3.244,1.343,4.6,4.6,0,0,1-4.166-2.665A28.32,28.32,0,0,1,351,245.57v-1.118a28.313,28.313,0,0,1,2.588-11.786,4.587,4.587,0,0,1,7.41-1.322l3.915,3.915a6.65,6.65,0,0,0,9.4,0l3.915-3.915a4.586,4.586,0,0,1,7.409,1.322A28.3,28.3,0,0,1,388.228,244.452Z" transform="translate(-3574.5 -4555.087)" fill="#57abf8" stroke="#3b4157" stroke-miterlimit="10" stroke-width="2"/>
  </g>
</svg>
