<svg xmlns="http://www.w3.org/2000/svg" width="65" height="65" viewBox="0 0 65 65">
  <g id="Group_44240" data-name="Group 44240" transform="translate(3541 4343)">
    <rect id="Rectangle_5515" data-name="Rectangle 5515" width="65" height="65" rx="5" transform="translate(-3541 -4343)" fill="#b3e8ca"/>
    <g id="Group_44236" data-name="Group 44236" transform="translate(5863 -2963.734)">
      <path id="Path_29194" data-name="Path 29194" d="M-8107.458-690.145c-.363.672-.967,15.925-3.562,21.111a6.465,6.465,0,0,1-.633-1.519s-3.729,1.675-3.994,3.611-1.841,7.409,4.627,8.757,14.941.929,17.6,0,5.586-4.139,4.591-7.673-6.008-4.695-6.008-4.695-3.263-12.7-2.641-19.592C-8100.251-690.785-8107.1-690.817-8107.458-690.145Z" transform="translate(-1268.805 -672.929)" fill="#4bd587"/>
      <g id="Group_43967" data-name="Group 43967" transform="translate(-9386 -1364)">
        <path id="Path_24843" data-name="Path 24843" d="M764.106,323.313c.469-.282.912-.746,1.409-.814a5.335,5.335,0,0,0,4.423-4.89c.235-2.165-1.02-4.22-3.387-5.439a2.749,2.749,0,0,1-.156.846c-.171.3-.446.747-.688.753-.287.008-.642-.338-.863-.614a2.738,2.738,0,0,1-.358-.912,67.961,67.961,0,0,1-3.207-19.793,9.4,9.4,0,0,1,.441-1.971c1.41.58,1.118,1.555,1.136,2.333a69.23,69.23,0,0,0,2.079,15.019c.172.7.377,1.389.612,2.247a7.185,7.185,0,0,1,5.534,9.675c-1.125,3.029-4.017,4.773-6.7,4.034Z" transform="translate(-742.272 -290.479)" fill="#3b4157"/>
        <path id="Path_24844" data-name="Path 24844" d="M744.632,290.668c1.721.147,1.547,1.157,1.46,1.926-.506,4.5-.983,9.012-1.661,13.489a46.913,46.913,0,0,1-1.647,6.289,11.03,11.03,0,0,1-1.262,2.061l-.789-2.042a4.749,4.749,0,0,0-3.31,5.094,5.273,5.273,0,0,0,3.819,4.954c1.411.369,1.411.369,1.705,1.277-2,1.5-5.816-1.368-6.713-3.816-1.539-4.2.428-7.921,5.488-9.826C743.726,303.9,744.305,297.384,744.632,290.668Z" transform="translate(-735.724 -290.527)" fill="#3b4157"/>
        <path id="Path_24845" data-name="Path 24845" d="M761.744,330.635c-.388.225-.762.607-1.175.655a7.375,7.375,0,0,0-4.426,2.361c-2.673,2.674-5.151,2.691-7.855.039a7.583,7.583,0,0,0-4.4-2.411c-.387-.049-.715-.561-1.07-.86.472-.234,1.049-.769,1.4-.647a36.35,36.35,0,0,1,4.266,1.879,5.448,5.448,0,0,1,1.143,1.075c1.788,1.729,3.385,1.764,5.125-.007a9.118,9.118,0,0,1,4.818-2.892C760.3,329.691,761.146,329.385,761.744,330.635Z" transform="translate(-737.54 -300.526)" fill="#3b4157"/>
      </g>
    </g>
  </g>
</svg>
