<svg xmlns="http://www.w3.org/2000/svg" width="65" height="65" viewBox="0 0 65 65">
  <g id="Group_44238" data-name="Group 44238" transform="translate(2933 4343)">
    <rect id="Rectangle_5516" data-name="Rectangle 5516" width="65" height="65" rx="5" transform="translate(-2933 -4343)" fill="#e8c9fd"/>
    <g id="Group_44237" data-name="Group 44237" transform="translate(9223.908 -3148.083)">
      <path id="Path_29193" data-name="Path 29193" d="M-12104.284-1176.728c-1.312.008-15.71,0-15.71,0l-2.455,3.167s.854-3.159-4.626-3.167-13.3-.442-15.542,1.485-3.38,6.8-3.466,12.112-.772,14.777.886,15.546,5.365-2.408,5.7-3.581,7.3-3.236,7.881-3.4,5.694-1.994,6.85-3.855a37.014,37.014,0,0,1,3.06-4.026s.753,2.651,5.8.455,11.139-6.453,11.627-8.982S-12102.972-1176.735-12104.284-1176.728Z" fill="#be59ff"/>
      <g id="Group_43965" data-name="Group 43965" transform="translate(-12874.821 -1554.412)">
        <path id="Path_24884" data-name="Path 24884" d="M736.033,404.07c-.771.854-1.44,1.678-2.2,2.407a6.421,6.421,0,0,1-1.857,1.366c-2.262.938-3.995-.2-4.03-2.657-.054-3.831-.02-7.664-.022-11.5,0-2.2-.026-4.4.007-6.6.087-5.851,4.034-10.123,9.891-10.456a95.063,95.063,0,0,1,10.426.006c1.392.074,2.746.852,4.429,1.414,1.356-1.411,3.5-1.539,5.738-1.5,3.4.057,6.813-.014,10.218.026,2.847.033,3.687,1,3.326,3.856-.554,4.4-3.084,7.548-6.6,9.983a20.762,20.762,0,0,1-9.705,3.516,19.119,19.119,0,0,1-2.9-.132c-1.587,3.451-4.525,5.533-8.077,6.917a2.748,2.748,0,0,0-1.217,1.061C741.376,405.112,739.78,405.66,736.033,404.07Zm-6.229,1.961c1.6.735,2.378-.269,3.121-1.21a14.009,14.009,0,0,1,8.753-5.169,17.454,17.454,0,0,0,5.118-1.969c3.039-1.7,4.855-4.236,4.684-7.948-.113-2.475-.007-4.96-.029-7.441-.026-2.925-1.048-3.962-3.969-3.992-2.834-.03-5.67-.024-8.5-.006-5.718.037-9.271,3.586-9.3,9.317-.023,5.528-.007,11.056,0,16.583C729.687,404.818,729.764,405.439,729.8,406.031Zm40.589-27.69c-5.172,0-9.767-.083-14.356.042-1.757.047-2.774,1.415-2.824,3.4-.069,2.764-.054,5.531-.006,8.3.031,1.787.568,2.271,2.385,2.092a18.619,18.619,0,0,0,7.617-2.5,13.657,13.657,0,0,0,6.487-7.314A26.752,26.752,0,0,0,770.392,378.342ZM738.239,402.6l.149.449c1.763.148,1.763.148,2.86-1.581Z" transform="translate(0 0)" fill="#3b4157"/>
      </g>
    </g>
  </g>
</svg>
