<svg xmlns="http://www.w3.org/2000/svg" width="65" height="65" viewBox="0 0 65 65">
  <g id="Group_44242" data-name="Group 44242" transform="translate(3237 3998)">
    <rect id="Rectangle_5508" data-name="Rectangle 5508" width="65" height="65" rx="5" transform="translate(-3237 -3998)" fill="#fcbaba"/>
    <g id="Group_44224" data-name="Group 44224" transform="translate(8907.688 -2947.258)">
      <path id="Path_29198" data-name="Path 29198" d="M448.509,257.728a13.156,13.156,0,0,1-11.394-19.735l11.394-19.735L459.9,237.993a13.156,13.156,0,0,1-11.394,19.735Zm0,0" transform="translate(-12560.328 -1256.31)" fill="#fa5858"/>
      <path id="Path_29200" data-name="Path 29200" d="M507.312,396.77h-4.184v-4.184h-4.369v4.184h-4.184v4.37h4.184v4.184h4.369V401.14h4.184Zm0,0" transform="translate(-12612.763 -1410.607)" fill="#fff"/>
      <path id="Path_29201" data-name="Path 29201" d="M497.818,400.7h-4.37a.69.69,0,0,1-.689-.689v-3.495h-3.495a.69.69,0,0,1-.689-.689v-4.37a.69.69,0,0,1,.689-.689h3.495v-3.495a.69.69,0,0,1,.689-.689h4.37a.69.69,0,0,1,.689.689v3.495H502a.69.69,0,0,1,.689.689v4.37a.69.69,0,0,1-.689.689h-3.495v3.495a.69.69,0,0,1-.689.689Zm-3.68-1.379h2.991v-3.495a.689.689,0,0,1,.689-.689h3.495v-2.991h-3.495a.689.689,0,0,1-.689-.689v-3.495h-2.991v3.495a.69.69,0,0,1-.689.689h-3.495v2.991h3.495a.69.69,0,0,1,.689.689Zm0,0" transform="translate(-12607.452 -1405.296)" fill="#3b4157"/>
      <path id="Path_29202" data-name="Path 29202" d="M443.18,253.106a13.846,13.846,0,0,1-11.991-20.769L442.583,212.6a.689.689,0,0,1,1.194,0l11.394,19.735a13.846,13.846,0,0,1-11.991,20.769Zm0-38.78-10.8,18.7a12.467,12.467,0,1,0,21.594,0Zm0,0" transform="translate(-12555 -1251)" fill="#3b4157"/>
    </g>
  </g>
</svg>
