<svg xmlns="http://www.w3.org/2000/svg" width="65" height="65" viewBox="0 0 65 65">
  <g id="Group_44246" data-name="Group 44246" transform="translate(3541 3653)">
    <rect id="Rectangle_5504" data-name="Rectangle 5504" width="65" height="65" rx="5" transform="translate(-3541 -3653)" fill="#fee2ba"/>
    <g id="Group_44216" data-name="Group 44216" transform="translate(-3801 -4880)">
      <path id="Path_29209" data-name="Path 29209" d="M-11506.938-500.4l29.224-29.121s3.276-3.078,5.164-1.154,1.146,3.929-.4,5.285-18.5,18.353-18.5,18.353l-2.159-2.354-2.384,2.658,2.384,2.276-3.521,3.112s-2.312,3.109-4.7,3.361a8.806,8.806,0,0,1-5.112-1.479C-11507.268-499.68-11506.938-500.4-11506.938-500.4Z" transform="translate(11782 1774)" fill="#fdb44d"/>
      <g id="Group_40414" data-name="Group 40414" transform="translate(274 1242)">
        <path id="Path_24981" data-name="Path 24981" d="M498.655,275.815a.745.745,0,0,1-.527-.218l-4.366-4.367a.744.744,0,0,1,0-1.053L512.639,251.3a3.833,3.833,0,1,1,5.42,5.42L499.181,275.6a.745.745,0,0,1-.527.218Zm-3.314-5.112,3.314,3.314,18.351-18.352a2.343,2.343,0,1,0-3.314-3.314Zm0,0" transform="translate(-481.918 -250.176)" fill="#3b4157"/>
        <path id="Path_24982" data-name="Path 24982" d="M523.9,390.187a.743.743,0,0,1-.527-.218l-4.366-4.367a.745.745,0,1,1,1.053-1.053l4.367,4.367a.745.745,0,0,1-.526,1.271Zm0,0" transform="translate(-504.03 -367.681)" fill="#3b4157"/>
        <path id="Path_24983" data-name="Path 24983" d="M542.483,371.6a.742.742,0,0,1-.527-.218l-4.367-4.367a.745.745,0,0,1,1.053-1.053l4.367,4.367a.745.745,0,0,1-.526,1.271Zm0,0" transform="translate(-520.307 -351.403)" fill="#3b4157"/>
        <path id="Path_24984" data-name="Path 24984" d="M561.069,353.02a.743.743,0,0,1-.527-.218l-4.366-4.367a.745.745,0,1,1,1.053-1.053l4.367,4.366a.745.745,0,0,1-.526,1.271Zm0,0" transform="translate(-536.586 -335.127)" fill="#3b4157"/>
        <path id="Path_24985" data-name="Path 24985" d="M404.983,424.5a6.874,6.874,0,0,1-4.894-2.027.744.744,0,0,1,0-1.052L411.715,409.8a.744.744,0,0,1,1.053,0l2.184,2.184a.744.744,0,0,1,0,1.053l-1.984,1.984,1.656,1.657a.744.744,0,0,1,0,1.053l-4.747,4.747a6.874,6.874,0,0,1-4.893,2.027Zm-3.278-2.589a5.44,5.44,0,0,0,7.118-.49l4.221-4.221-1.657-1.657a.746.746,0,0,1,0-1.053l1.985-1.984-1.13-1.131Zm0,0" transform="translate(-399.871 -389.795)" fill="#3b4157"/>
      </g>
    </g>
  </g>
</svg>
