<svg xmlns="http://www.w3.org/2000/svg" width="65" height="65" viewBox="0 0 65 65">
  <g id="Group_44244" data-name="Group 44244" transform="translate(2933 3653)">
    <rect id="Rectangle_5503" data-name="Rectangle 5503" width="65" height="65" rx="5" transform="translate(-2933 -3653)" fill="#fdcdb0"/>
    <path id="Path_29858" data-name="Path 29858" d="M-10895.681-515.632s1.023,3.894,1.952,4.308a13.374,13.374,0,0,0,6.548,0c1.8-.66.5,3.39-.408,4.581s-1.147,10.363,5.28,11.375,8.185-6.362,8.185-6.362a10.637,10.637,0,0,0-1.656-7.243c-2.319-3.153,4.715-1.7,4.715-1.7s2.874-.052,3.306-1.058,2.245-3.557,2.319-3.9-14.993.305-14.993.305l-1.046.722-4.4-1.027Z" transform="translate(7981 -3106)" fill="#fb8032"/>
    <g id="Group_44217" data-name="Group 44217" transform="translate(-3569.121 -4176.389)">
      <path id="Path_24893" data-name="Path 24893" d="M651.954,554.333c1.936-.74,12.247-.609,15.55.2.473-2.994.779-6.022,1.462-8.962.7-3.018,1.736-5.962,2.708-8.912.237-.72.483-1.764,2.031-1.194a20.847,20.847,0,0,1-.479,2.513,51.565,51.565,0,0,0-2.513,14.585c-.01.556,0,1.112,0,1.522,2.711-.073,5.287-.193,7.862-.2a70.966,70.966,0,0,1,7.52.112c.244,1.688-.718,1.616-1.546,1.622-2.83.019-5.661,0-8.492.015a21.653,21.653,0,0,0-2.966.082c-1.839.261-2.384,1.06-2.061,2.909.352,2.019.941,4.014,1.091,6.045a15.168,15.168,0,0,1-.539,4.57,2.531,2.531,0,0,1-2.476,1.992,2.753,2.753,0,0,1-2.7-2.02,11.193,11.193,0,0,1-.236-6.479c.243-1.249.608-2.472.874-3.717.467-2.19-.248-3.227-2.52-3.337-2.471-.119-4.951-.04-7.428-.049-1.344,0-2.689,0-4.033-.025C652.232,555.6,651.673,555.314,651.954,554.333Zm17.351,4.728-.445.012a34.381,34.381,0,0,0-.8,3.45,37.315,37.315,0,0,0-.335,4.808,2.046,2.046,0,0,0,1.594,2.193C671.784,565.971,669.669,562.512,669.3,559.061Z" fill="#3b4157"/>
      <path id="Path_24894" data-name="Path 24894" d="M664.064,565.524c-3.184.778-5.935,1.42-8.372-.589.28-1.262,1.17-1.212,1.959-.858a5.133,5.133,0,0,0,4.294.015,2.518,2.518,0,0,1,3.065,3.848,8.108,8.108,0,0,0-.336,8.655,5.632,5.632,0,0,0,5.291,3.3,5.773,5.773,0,0,0,4.993-3.437,7.973,7.973,0,0,0,.048-7.726c-.19-.378-.429-.732-.636-1.1a2.354,2.354,0,0,1,.112-2.781,2.3,2.3,0,0,1,2.649-.89,6.581,6.581,0,0,0,5.12.05c.413-.178,1.1.291,2.027.571-2.823,2.366-5.565,1.709-8.312,1.02l-.255.455c.3.655.58,1.319.9,1.963a10.021,10.021,0,0,1,.658,7.427c-1.078,3.841-4.435,6.455-7.874,6.21a8.284,8.284,0,0,1-7.326-7.153,10.123,10.123,0,0,1,1.034-6.791C663.4,567.2,663.588,566.623,664.064,565.524Z" transform="translate(-0.761 -5.693)" fill="#3b4157"/>
    </g>
  </g>
</svg>
