<svg xmlns="http://www.w3.org/2000/svg" width="65" height="65" viewBox="0 0 65 65">
  <g id="Group_44245" data-name="Group 44245" transform="translate(3237 3653)">
    <rect id="Rectangle_5502" data-name="Rectangle 5502" width="65" height="65" rx="5" transform="translate(-3237 -3653)" fill="#fbcbee"/>
    <path id="Path_29859" data-name="Path 29859" d="M-11189.155-532.216c1.018-.1,7.609,0,7.609,0a3.8,3.8,0,0,1,1.778,1.826c.335,1.109,1.975.288,1.975.288s1.877.487,1.965,1.624-.75,2.77-3.354,2.62c-.977.489-.893,2.287-.893,2.287l.308,2.236s2.477.02,2.714,0,2.431.925,1.833,2.551-3.354,1.686-3.962,1.512-.585,1.533-.585,1.533l.331,3.055a20.2,20.2,0,0,0,3.14,0c.308-.162,1.508.823,1.508,1.6s-.616,2.171-1.647,2.274-2.52.148-2.52.148l-.48,1.664a11.547,11.547,0,0,0,.254,2.617c.256.637.421,1.412,1.135,1.347s2.723-.486,3.259,0,.154,2.929.154,2.929-2.24,1.45-3.413,1.013-1.135,2.267-1.135,2.267a13.015,13.015,0,0,1-4.045.8c-1.833-.036-6.916-.267-6.916-.267s-1.854-1.543-1.987-2.8c-.467-.535-1.915,0-1.915,0s-2.094-.564-2.054-1.269.176-2.257.621-2.672,2.853.088,3.348,0,1.379-3.221,1.379-3.221l-.647-2.8s-1.851.934-2.915.246-2.442-2.824.472-4.127a12.154,12.154,0,0,0,2.756.25l.335-2.16-.335-2.6s-2.322.357-2.756,0-1.726-.72-1.244-2.254a2.873,2.873,0,0,1,3.2-1.835c1.069.184,1.389.3,1.492-.636s0-3.521,0-3.521,0-.541-.859-.6-2.591.765-3.064-.2-.289-2.836.19-3.067a5.264,5.264,0,0,1,2.725-.389c1.3.124,1.29-1.282,1.29-1.282A.946.946,0,0,1-11189.155-532.216Z" transform="translate(7981 -3106)" fill="#f76fd3"/>
    <g id="Group_44218" data-name="Group 44218" transform="translate(-3709.121 -4174.164)">
      <path id="Path_24853" data-name="Path 24853" d="M511.38,551.845v2.831c1.55,0,3.067-.49,3.982.847a4.046,4.046,0,0,1,.648,2.182c-.009,2-1.187,2.753-3.883,2.671-.873,1.458-.873,1.458-.041,3.7,3.14-.239,4.318.467,4.413,2.645.1,2.235-1,3.064-4.251,3.087-.431,2.592-2.27,3.112-4.608,2.993-1.888-.1-3.785-.01-5.679-.018-2.817-.013-3.332-.352-4.3-2.533a16.153,16.153,0,0,1-3.683-1.462,3.035,3.035,0,0,1-.631-2.325c.15-2.036,1.628-2.758,4.366-2.238.431-1.219,1.291-2.395.433-3.4a14.931,14.931,0,0,1-3.625-1.315,3.088,3.088,0,0,1-.7-2.306c.066-2.036,1.351-2.752,4.466-2.48l.3-2.831c-3.446-.332-4.458-1.161-4.307-3.3.144-2.036,1.358-2.793,4.4-2.564.087-.9.175-1.8.261-2.683-3.568-.6-4.43-1.411-4.138-3.68.24-1.863,1.422-2.559,4.123-2.32.272-2.119,1.8-2.351,3.581-2.274,1.629.07,3.265.047,4.9,0,1.7-.049,3.206.154,3.473,2.193,2.933-.067,4.119.728,4.234,2.731.117,2.044-1.046,3.026-3.79,3.157-.837.936-.483,1.868.032,2.8,2.969-.094,4.181.712,4.243,2.8S514.624,551.605,511.38,551.845Zm2.254,16.374c.254-.15.849-.3,1.028-.659a1.643,1.643,0,0,0-.06-1.441c-.226-.307-.879-.341-1.355-.405-.233-.031-.49.16-.744.219-1.479.349-2.059-.026-2.309-1.482-.271-1.58-.424-1.761-1.963-1.789-2.09-.039-4.18-.021-6.27,0-1.972.016-2,.052-2.375,1.987-.225,1.157-.768,1.563-1.909,1.364a13.53,13.53,0,0,0-1.512-.387c-.894-.046-1.293.5-1.258,1.366a1.067,1.067,0,0,0,1.258,1.152,9.42,9.42,0,0,0,1.14-.265c1.443-.285,1.887.038,2.064,1.482.18,1.481.448,1.774,1.962,1.8,2.351.042,4.7.039,7.054.005,1.634-.023,1.84-.251,2.07-1.9.182-1.3.674-1.655,1.969-1.408C512.741,567.92,513.047,568.042,513.634,568.219Zm-3.987-14.071h-9.433c-.569,2.619-.6,2.64-3.1,2.179a2.643,2.643,0,0,0-.38-.091,1.16,1.16,0,0,0-1.321,1.322,1.1,1.1,0,0,0,1.245,1.191,13.265,13.265,0,0,0,1.329-.309c.976-.148,1.677.129,1.776,1.257.033.369.115.734.187,1.178h9.93c.09-.332.16-.513.188-.7.258-1.737.525-1.926,2.287-1.594.319.06.738.275.936.147a2.408,2.408,0,0,0,1.072-1.127,1.011,1.011,0,0,0-1.044-1.319,6.528,6.528,0,0,0-1.327.279c-1.307.246-1.8-.051-2.143-1.3C509.761,554.95,509.731,554.627,509.647,554.148Zm-9.444-1.915h9.208c.646-2.423.644-2.392,2.959-2.2a1.71,1.71,0,0,0,1.339-.462,1.544,1.544,0,0,0,.018-1.42c-.211-.326-.844-.44-1.312-.518-.294-.049-.625.157-.945.218-1.056.2-1.8-.078-1.978-1.276a9.184,9.184,0,0,0-.3-1.092H500.6c-.641,2.575-.658,2.564-2.988,2.214-.456-.069-1.274.021-1.372.263a5.481,5.481,0,0,0-.167,1.792c1.4.826,2.736-.7,3.861.637C500,550.853,500.086,551.424,500.2,552.233Zm8.684-15.393h-7.96c-.58,2.344-.827,2.515-2.509,2.27-.57-.083-1.479-.093-1.7.23-.317.457-.142,1.255-.185,2.067a17.907,17.907,0,0,1,2.975-.152c1.357.168.559,1.737,1.5,2.475h8.082c.519-2.535.516-2.493,2.825-2.361a1.691,1.691,0,0,0,1.382-.647,1.768,1.768,0,0,0-.315-1.55c-.23-.264-.948-.213-1.423-.135-1.876.307-2.039.214-2.443-1.706A3.127,3.127,0,0,0,508.888,536.84Z" fill="#3b4157"/>
    </g>
  </g>
</svg>
