<?xml version="1.0" encoding="iso-8859-1"?>
<!-- Generator: Adobe Illustrator 19.0.0, SVG Export Plug-In . SVG Version: 6.00 Build 0)  -->
<svg version="1.1" id="Capa_1" xmlns="http://www.w3.org/2000/svg" xmlns:xlink="http://www.w3.org/1999/xlink" x="0px" y="0px"
	 viewBox="0 0 480 480" style="enable-background:new 0 0 480 480;" xml:space="preserve">
<path style="fill:#7D8F9F;" d="M16,358.604h88v16H16V358.604z"/>
<path style="fill:#88D0EF;" d="M48,326.604l152,144h128c22.091,0,40-17.909,40-40l-144-8l-128-128L48,326.604z"/>
<path style="fill:#D1E3EE;" d="M224,422.604l-128-128l-48,32l18.84,17.848l15.504-15.504l11.312,11.312l-15.2,15.2l13.032,12.344
	l14.856-14.856l11.312,11.312l-14.552,14.552l13.032,12.344l14.208-14.208l11.312,11.312l-13.904,13.904l13.048,12.344l13.6-13.6
	l11.312,11.312L152.4,425.516l13.032,12.344l12.912-12.912l11.312,11.312l-12.6,12.608L200,470.604h128c22.091,0,40-17.909,40-40
	L224,422.604z"/>
<g>
	<path style="fill:#A9BFD1;" d="M82.344,328.948L66.84,344.452l11.616,11.008l15.2-15.2L82.344,328.948z"/>
	<path style="fill:#A9BFD1;" d="M106.344,352.948l-14.856,14.856l11.616,11.008l14.552-14.552L106.344,352.948z"/>
	<path style="fill:#A9BFD1;" d="M130.344,376.948l-14.208,14.208l11.616,11.008l13.904-13.904L130.344,376.948z"/>
	<path style="fill:#A9BFD1;" d="M154.344,400.948l-13.56,13.56l11.616,11.008l13.256-13.256L154.344,400.948z"/>
	<path style="fill:#A9BFD1;" d="M178.344,424.948l-12.912,12.912l11.624,11.008l12.6-12.608L178.344,424.948z"/>
</g>
<g>
	<path style="fill:#7D8F9F;" d="M144,86.604h120v16H144V86.604z"/>
	<path style="fill:#7D8F9F;" d="M112,86.604h16v16h-16V86.604z"/>
	<path style="fill:#7D8F9F;" d="M88,118.604h80v16H88V118.604z"/>
	<path style="fill:#7D8F9F;" d="M56,118.604h16v16H56V118.604z"/>
	<path style="fill:#7D8F9F;" d="M48,214.604h32v16H48V214.604z"/>
	<path style="fill:#7D8F9F;" d="M16,214.604h16v16H16V214.604z"/>
	<path style="fill:#7D8F9F;" d="M72,406.604h32v16H72V406.604z"/>
	<path style="fill:#7D8F9F;" d="M40,406.604h16v16H40V406.604z"/>
</g>
<path style="fill:#EA676B;" d="M0,462.604h480v16H0V462.604z"/>
<path style="fill:#F8C09C;" d="M344.336,383.516l-66.192-19.832L232,278.604h-0.184L464,6.604H320L162.168,203.892
	c-2.323-4.387-5.289-8.402-8.8-11.912L144,182.604l-19.392,44.552L96.056,255.7c-10.743,10.739-10.746,28.153-0.007,38.897
	c0.002,0.003,0.005,0.005,0.007,0.007l127.944,128l144,8v-15.296C368.001,400.647,358.381,387.722,344.336,383.516z"/>
<path style="fill:#D1E3EE;" d="M344.336,383.516l-66.192-19.832L232,278.604h-0.184l22.184-26l-72.664-72.664l-19.2,23.952
	c-2.323-4.387-5.289-8.402-8.8-11.912L144,182.604l-19.392,44.552L96.056,255.7c-10.743,10.739-10.746,28.153-0.007,38.897
	c0.002,0.003,0.005,0.005,0.007,0.007l127.944,128l144,8v-15.296C368.001,400.647,358.381,387.722,344.336,383.516L344.336,383.516z
	"/>
<path style="fill:#2276BB;" d="M278.144,363.684L232,278.604l-21.12-1.872c-24.604-3.515-42.879-24.586-42.88-49.44
	c0-13.244-5.26-25.946-14.624-35.312L144,182.604l-19.392,44.552L96.056,255.7c-10.743,10.739-10.746,28.153-0.007,38.897
	c0.002,0.003,0.005,0.005,0.007,0.007l127.944,128l144,8v-15.296c0.001-14.661-9.619-27.586-23.664-31.792L278.144,363.684z"/>
<g>
	<path style="fill:#7FCCCB;" d="M213.656,332.26l30.76-30.76l-7.952-14.672l-34.12,34.12L213.656,332.26z"/>
	<path style="fill:#7FCCCB;" d="M237.656,356.26l23.64-23.64l-7.96-14.672l-26.992,27L237.656,356.26z"/>
	<path style="fill:#7FCCCB;" d="M261.656,380.26l16.552-16.552l-0.064-0.024l-7.928-14.608l-19.872,19.872L261.656,380.26z"/>
</g>
<g>
	<path style="fill:#A9BFD1;" d="M186.346,216.948l15.998-15.998l11.314,11.314l-15.998,15.998L186.346,216.948z"/>
	<path style="fill:#A9BFD1;" d="M210.343,240.948l15.998-15.998l11.314,11.314l-15.998,15.998L210.343,240.948z"/>
</g>
<path d="M376,430.604V415.3c0.083-18.221-11.889-34.302-29.368-39.448l-63.008-18.848l-41.952-77.352l228.44-267.856l-12.176-10.4
	l-204.288,239.52l-61.6-61.6L326.272,11.604l-12.496-10l-68,85H144v16h88.976l-70.224,87.784c-1.168-1.4-2.4-2.768-3.696-4.072
	l-9.376-9.368c-3.124-3.124-8.19-3.124-11.314,0c-0.709,0.709-1.278,1.545-1.678,2.464l-18.784,43.192L90.4,250.044
	c-11.334,11.219-13.674,28.671-5.696,42.48l-41.12,27.424c-3.676,2.451-4.669,7.418-2.218,11.094c0.332,0.498,0.72,0.958,1.154,1.37
	l27.648,26.192H16v16h71.032l92.912,88H0v16h480v-16H363.696C371.62,453.83,376.004,442.427,376,430.604L376,430.604z
	 M182.024,191.916l14.688,14.688L186.4,216.948l11.312,11.312L208,217.916l12.712,12.688L210.4,240.948l11.312,11.312L232,241.916
	l11.2,11.2l-14.624,17.144L212,268.812c-20.612-3.041-35.911-20.685-36-41.52c0.01-7.664-1.502-15.253-4.448-22.328L182.024,191.916
	z M101.736,261.356l28.552-28.544c0.712-0.707,1.282-1.543,1.68-2.464l14.704-33.784l1.072,1.064
	c7.881,7.856,12.293,18.537,12.256,29.664c0.164,28.929,21.514,53.364,50.16,57.408l16.856,1.496l3.544,6.536l-28.16,28.216
	l11.312,11.312l24.832-24.856l8.92,16.456L226.4,344.948l11.312,11.312l17.736-17.736l8.928,16.448L250.4,368.948l11.312,11.312
	l10.952-10.952c0.885,0.93,1.983,1.63,3.2,2.04l66.2,19.832c10.616,3.245,17.885,13.02,17.936,24.12v6.848l-51.744-2.872
	l-80.736-4.488l-125.784-125.84C94.126,281.325,94.126,268.979,101.736,261.356L101.736,261.356z M203.2,462.604l-20.472-19.4
	l6.944-6.944L178.4,424.948l-7.248,7.248l-13.032-12.344l7.592-7.592L154.4,400.948l-7.904,7.896L133.44,396.5l8.24-8.24
	l-11.28-11.312l-8.552,8.552L108.8,373.148l8.888-8.888L106.4,352.948l-9.2,9.2l-13.064-12.344l9.544-9.544L82.4,328.948
	l-9.848,9.848L60.8,327.692L95,304.9l123.4,123.36c1.39,1.393,3.244,2.224,5.208,2.336l135.56,7.528
	c-3.499,14.373-16.376,24.486-31.168,24.48L203.2,462.604z"/>
<path d="M112.024,86.604h16v16h-16V86.604z"/>
<path d="M88.024,118.604h80v16h-80V118.604z"/>
<path d="M56.024,118.604h16v16h-16V118.604z"/>
<path d="M48.024,214.604h32v16h-32V214.604z"/>
<path d="M16.024,214.604h16v16h-16V214.604z"/>
<path d="M72.024,406.604h32v16h-32V406.604z"/>
<path d="M40.024,406.604h16v16h-16L40.024,406.604z"/>
<g>
</g>
<g>
</g>
<g>
</g>
<g>
</g>
<g>
</g>
<g>
</g>
<g>
</g>
<g>
</g>
<g>
</g>
<g>
</g>
<g>
</g>
<g>
</g>
<g>
</g>
<g>
</g>
<g>
</g>
</svg>
