<svg xmlns="http://www.w3.org/2000/svg" width="65.362" height="65" viewBox="0 0 65.362 65">
  <g id="Group_44241" data-name="Group 44241" transform="translate(3541 3998)">
    <rect id="Rectangle_5510" data-name="Rectangle 5510" width="65" height="65" rx="5" transform="translate(-3541 -3998)" fill="#d1dde9"/>
    <path id="Path_29860" data-name="Path 29860" d="M-11499.905-872.715s1.338-7.11,9.313-6.161,7.291,8.858,7.291,8.858-.881,5.3-5.526,7.761-4.3.689-4.3.689l3.327,3.891s3.808-.534,8.489,2.769,1.044,6.484.306,8.2-3.809.285-4.435-.255-2.139,2.415-2.139,2.415-4.032,4.872-9.291,1.425a19.874,19.874,0,0,1-7.208-9.423s-1.866-9.007,0-11.807,3.377-3.633,3.484-4.3S-11499.905-872.715-11499.905-872.715Z" transform="translate(7981 -3106)" fill="#6ca3d8"/>
    <path id="Path_29861" data-name="Path 29861" d="M882.812,269.009a7.118,7.118,0,0,0,4.286,1.06c-.037-.6-.063-1.2-.069-1.8v0a3.438,3.438,0,0,1-1.17-.121,7.169,7.169,0,0,1-1.518-.573c-3.1-1.411-3.339-1.411-6.443.178h0c-2.911-2.219-3.3-2.192-6.288.45l-1.177-1.511,3.329-1.281c1.023-1.112,1.869-2.188,2.857-3.1,3.638-3.353,3.04-9.83-1.3-13.075a9.462,9.462,0,0,0-9.911-1.143,8.723,8.723,0,0,0-5.453,7.781A6.1,6.1,0,0,1,858.169,260a10.082,10.082,0,0,0-2.833,6.5,19.206,19.206,0,0,0,6.755,17.034c.175.15.364.282.553.423,5.028,3.6,9.766,2.593,12.863-2.73.141-.011.313-.08.423-.025,3.346,1.661,5.191.954,6.44-2.529a12.622,12.622,0,0,0,.6-2.48c.409-2.941-.674-4.558-3.527-5.34-.29-.08-.583-.155-.9-.238C879.781,268.445,880.871,267.939,882.812,269.009Zm-4.187,9.109c1.5-.412,1.5-.412,1.674-4.949.268.621.817,1.277.748,1.86a12.933,12.933,0,0,1-1,4,1.684,1.684,0,0,1-3.139.15,12.558,12.558,0,0,1-1.074-3.695c-.2-.931.1-2.084-1.615-2.507a13.276,13.276,0,0,0-.35,1.906c-.057,1.47.132,2.967-.069,4.413a5.23,5.23,0,0,1-7.336,4.455,10.88,10.88,0,0,1-2.69-1.354,17.148,17.148,0,0,1-6.138-17.434,9.706,9.706,0,0,1,1.983-3.616,8.2,8.2,0,0,0,2.25-5.192,7.207,7.207,0,0,1,7.319-6.97,7.6,7.6,0,0,1,7.823,6.554,5.258,5.258,0,0,1-2.228,5.5c-1.448.961-2.362,2.494-4.091,3.234-1.29.552-2.1.7-3.053-.329A4.377,4.377,0,0,0,866.182,263a3.755,3.755,0,0,0-1.507.076l-.078.705,5.83,6.024-2.043,1.552c-1.789.013-2.329-3.128-5.2-1.936l3.706,3.844a25.979,25.979,0,0,0-.987,2.7c-.092.35.223.806.351,1.212a3.7,3.7,0,0,0,1.311-.564c.353-.372.389-1.03.717-1.443a18.483,18.483,0,0,1,3.164-3.638c2.672-1.951,5.413-.895,6.34,2.293C878.193,275.218,878.353,276.678,878.625,278.118Z" transform="translate(-4380.198 -4233.114)" fill="#3b4157"/>
    <path id="Path_29862" data-name="Path 29862" d="M-11473.983-858.2s6.573,1.925,18.335-.051" transform="matrix(1, 0.017, -0.017, 1, 7962.115, -2905.868)" fill="none" stroke="#3b4157" stroke-linecap="round" stroke-width="2"/>
  </g>
</svg>
